<svg width="324" height="277" viewBox="0 0 324 277" fill="none" xmlns="http://www.w3.org/2000/svg">
<path d="M23.5988 0C10.565 0 0 10.9993 0 24.5655C0 38.1333 10.565 49.131 23.5988 49.131C36.6311 49.131 47.1975 38.1333 47.1975 24.5655C47.1975 10.9993 36.6311 0 23.5988 0ZM23.5988 43.5624C13.535 43.5624 5.34945 35.04 5.34945 24.5655C5.34945 14.091 13.535 5.5686 23.5988 5.5686C33.661 5.5686 41.8481 14.091 41.8481 24.5655C41.8481 35.04 33.661 43.5624 23.5988 43.5624Z" fill="#7C4523"/>
<path fill-rule="evenodd" clip-rule="evenodd" d="M23.6 39.719C31.6418 39.719 38.1609 32.9329 38.1609 24.5619C38.1609 16.1908 31.6418 9.40479 23.6 9.40479C15.5582 9.40479 9.03906 16.1908 9.03906 24.5619C9.03906 32.9329 15.5582 39.719 23.6 39.719ZM22.9207 32.9448V35.1023H24.8729V32.9448H25.9334C27.5081 32.9448 28.6971 32.5601 29.5005 31.7908C30.3199 31.0215 30.7297 29.8508 30.7297 28.2787C30.7297 27.1916 30.5047 26.3721 30.0548 25.8202C29.621 25.2515 29.0265 24.8585 28.2713 24.6411C28.8337 24.3401 29.2836 23.8969 29.621 23.3115C29.9584 22.7094 30.1271 21.9735 30.1271 21.1039C30.1271 19.7324 29.7576 18.6704 29.0184 17.9178C28.2793 17.1652 27.1385 16.7889 25.596 16.7889H24.8729V14.6315H22.9207V16.7889H18.0762V32.9448H22.9207ZM22.9207 23.6878H20.7033V18.846H22.9207V23.6878ZM25.2344 23.6878H24.8729V18.846H24.9452C26.0057 18.846 26.7288 19.0551 27.1144 19.4732C27.5 19.8746 27.6928 20.4934 27.6928 21.3296C27.6928 22.0488 27.5 22.6258 27.1144 23.0606C26.7448 23.4787 26.1182 23.6878 25.2344 23.6878ZM22.9207 30.9379H20.7033V25.6947H22.9207V30.9379ZM25.3791 30.9379H24.8729V25.6947H25.1139C26.2387 25.6947 27.0099 25.9038 27.4277 26.3219C27.8615 26.7233 28.0785 27.3421 28.0785 28.1783C28.0785 29.1985 27.8615 29.9177 27.4277 30.3358C26.9939 30.7372 26.311 30.9379 25.3791 30.9379Z" fill="#7C4523"/>
<path fill-rule="evenodd" clip-rule="evenodd" d="M84.7854 261.087C87.9855 264.974 93.937 264.974 97.137 261.087L131.186 219.736C135.483 214.517 131.771 206.651 125.01 206.651L118.856 206.651L118.856 121.876C118.856 117.458 115.274 113.876 110.856 113.876L71.0665 113.876C66.6482 113.876 63.0665 117.458 63.0665 121.876L63.0665 206.651L56.9125 206.651C50.1518 206.651 46.4392 214.517 50.7367 219.736L84.7854 261.087Z" fill="url(#paint0_linear_479_902)"/>
<path fill-rule="evenodd" clip-rule="evenodd" d="M96.8428 2.33037C93.7215 -0.776794 88.6759 -0.776789 85.5547 2.33038L25.5695 62.045C20.5122 67.0795 24.0776 75.7146 31.2135 75.7146H63.2131L63.2131 134.011C63.2131 138.429 66.7949 142.011 71.2131 142.011H110.923C115.341 142.011 118.923 138.429 118.923 134.011V75.7146H151.184C158.32 75.7146 161.885 67.0795 156.828 62.045L96.8428 2.33037Z" fill="url(#paint1_linear_479_902)"/>
<line opacity="0.3" x1="135.2" y1="23.5" x2="184.2" y2="23.5" stroke="#ECECEC"/>
<line opacity="0.3" x1="135.2" y1="59.5" x2="153.2" y2="59.5" stroke="#ECECEC"/>
<line opacity="0.3" x1="135.2" y1="95.5" x2="153.2" y2="95.5" stroke="#ECECEC"/>
<line x1="135.2" y1="131.5" x2="184.2" y2="131.5" stroke="#7C4523"/>
<line opacity="0.3" x1="135.2" y1="167.5" x2="153.2" y2="167.5" stroke="#ECECEC"/>
<line opacity="0.3" x1="135.2" y1="203.5" x2="153.2" y2="203.5" stroke="#ECECEC"/>
<line x1="135.2" y1="239.5" x2="184.2" y2="239.5" stroke="#ECECEC"/>
<path opacity="0.6" d="M184.815 33.18C184.167 33.18 183.543 33.138 182.943 33.054C182.355 32.97 181.875 32.85 181.503 32.694V31.056C181.947 31.236 182.433 31.374 182.961 31.47C183.489 31.566 183.987 31.614 184.455 31.614C185.331 31.614 185.955 31.536 186.327 31.38C186.699 31.224 186.885 30.912 186.885 30.444C186.885 30.156 186.813 29.928 186.669 29.76C186.525 29.58 186.327 29.436 186.075 29.328C185.823 29.22 185.433 29.082 184.905 28.914L184.203 28.68C183.219 28.344 182.481 27.978 181.989 27.582C181.509 27.174 181.269 26.604 181.269 25.872C181.269 24.996 181.599 24.318 182.259 23.838C182.919 23.346 183.891 23.1 185.175 23.1C185.703 23.1 186.237 23.142 186.777 23.226C187.317 23.31 187.773 23.412 188.145 23.532V25.152C187.761 25.008 187.323 24.894 186.831 24.81C186.351 24.726 185.895 24.684 185.463 24.684C184.707 24.684 184.131 24.768 183.735 24.936C183.351 25.092 183.159 25.386 183.159 25.818C183.159 26.07 183.237 26.28 183.393 26.448C183.561 26.616 183.783 26.76 184.059 26.88C184.335 26.988 184.761 27.138 185.337 27.33L185.859 27.492C186.891 27.84 187.635 28.224 188.091 28.644C188.547 29.052 188.775 29.652 188.775 30.444C188.775 31.368 188.427 32.058 187.731 32.514C187.035 32.958 186.063 33.18 184.815 33.18ZM194.371 26.88C194.371 26.352 194.317 25.938 194.209 25.638C194.101 25.326 193.891 25.092 193.579 24.936C193.279 24.768 192.841 24.684 192.265 24.684C191.881 24.684 191.461 24.726 191.005 24.81C190.561 24.894 190.159 25.008 189.799 25.152V23.64C190.171 23.484 190.615 23.358 191.131 23.262C191.647 23.154 192.151 23.1 192.643 23.1C193.939 23.1 194.875 23.382 195.451 23.946C196.039 24.51 196.333 25.404 196.333 26.628V33H194.371V26.88ZM198.627 26.844C198.627 25.644 198.987 24.72 199.707 24.072C200.439 23.424 201.549 23.1 203.037 23.1C204.525 23.1 205.623 23.424 206.331 24.072C207.051 24.72 207.411 25.644 207.411 26.844V33H205.449V26.664C205.449 25.344 204.645 24.684 203.037 24.684C202.221 24.684 201.609 24.846 201.201 25.17C200.793 25.494 200.589 25.992 200.589 26.664V28.662C201.117 28.23 201.747 28.014 202.479 28.014H203.649L203.721 29.58H202.425C201.693 29.58 201.081 29.784 200.589 30.192V33H198.627V26.844ZM213.373 26.88C213.373 26.352 213.319 25.938 213.211 25.638C213.103 25.326 212.893 25.092 212.581 24.936C212.281 24.768 211.843 24.684 211.267 24.684C210.883 24.684 210.463 24.726 210.007 24.81C209.563 24.894 209.161 25.008 208.801 25.152V23.64C209.173 23.484 209.617 23.358 210.133 23.262C210.649 23.154 211.153 23.1 211.645 23.1C212.941 23.1 213.877 23.382 214.453 23.946C215.041 24.51 215.335 25.404 215.335 26.628V33H213.373V26.88ZM219.807 33C218.547 33 217.917 32.376 217.917 31.128V24.918C217.917 23.622 218.373 22.668 219.285 22.056H216.459V20.508H221.661V21.984C221.013 22.236 220.551 22.62 220.275 23.136C219.999 23.64 219.861 24.33 219.861 25.206V30.642C219.861 30.966 219.909 31.182 220.005 31.29C220.113 31.398 220.329 31.452 220.653 31.452H221.481V33H219.807ZM228.335 33.18C227.627 33.18 226.997 33.078 226.445 32.874C225.905 32.658 225.401 32.346 224.933 31.938L224.825 33H223.043V23.28H225.005V30.444C225.341 30.792 225.743 31.074 226.211 31.29C226.679 31.506 227.171 31.614 227.687 31.614C228.371 31.614 228.875 31.452 229.199 31.128C229.535 30.804 229.703 30.282 229.703 29.562V23.28H231.647V29.652C231.647 30.768 231.353 31.638 230.765 32.262C230.189 32.874 229.379 33.18 228.335 33.18ZM229.694 18.834H231.656V21.786H229.694V18.834ZM237.128 33.18C236.48 33.18 235.856 33.138 235.256 33.054C234.668 32.97 234.188 32.85 233.816 32.694V31.056C234.26 31.236 234.746 31.374 235.274 31.47C235.802 31.566 236.3 31.614 236.768 31.614C237.644 31.614 238.268 31.536 238.64 31.38C239.012 31.224 239.198 30.912 239.198 30.444C239.198 30.156 239.126 29.928 238.982 29.76C238.838 29.58 238.64 29.436 238.388 29.328C238.136 29.22 237.746 29.082 237.218 28.914L236.516 28.68C235.532 28.344 234.794 27.978 234.302 27.582C233.822 27.174 233.582 26.604 233.582 25.872C233.582 24.996 233.912 24.318 234.572 23.838C235.232 23.346 236.204 23.1 237.488 23.1C238.016 23.1 238.55 23.142 239.09 23.226C239.63 23.31 240.086 23.412 240.458 23.532V25.152C240.074 25.008 239.636 24.894 239.144 24.81C238.664 24.726 238.208 24.684 237.776 24.684C237.02 24.684 236.444 24.768 236.048 24.936C235.664 25.092 235.472 25.386 235.472 25.818C235.472 26.07 235.55 26.28 235.706 26.448C235.874 26.616 236.096 26.76 236.372 26.88C236.648 26.988 237.074 27.138 237.65 27.33L238.172 27.492C239.204 27.84 239.948 28.224 240.404 28.644C240.86 29.052 241.088 29.652 241.088 30.444C241.088 31.368 240.74 32.058 240.044 32.514C239.348 32.958 238.376 33.18 237.128 33.18ZM233.31 20.436H239.106V18.942H240.726V21.804H233.22L233.31 20.436ZM247.458 33.18C246.042 33.18 244.944 32.85 244.164 32.19C243.396 31.518 243.012 30.528 243.012 29.22V23.28H244.974V29.292C244.974 30.084 245.178 30.672 245.586 31.056C246.006 31.428 246.63 31.614 247.458 31.614C248.286 31.614 248.91 31.428 249.33 31.056C249.75 30.672 249.96 30.084 249.96 29.292V23.28H251.904V29.22C251.904 30.528 251.52 31.518 250.752 32.19C249.984 32.85 248.886 33.18 247.458 33.18Z" fill="#B9B9B9"/>
<path opacity="0.6" d="M184.191 58.14C183.248 58.14 182.497 57.8273 181.937 57.202C181.377 56.5673 181.097 55.6107 181.097 54.332C181.097 53.0347 181.312 52.0407 181.741 51.35C182.18 50.65 182.796 50.3 183.589 50.3C183.953 50.3 184.247 50.3607 184.471 50.482C184.704 50.6033 184.914 50.7853 185.101 51.028C185.297 50.8133 185.554 50.6407 185.871 50.51C186.188 50.37 186.51 50.3 186.837 50.3C187.425 50.3 187.873 50.4773 188.181 50.832C188.489 51.1867 188.643 51.686 188.643 52.33V58H187.117V52.554C187.117 52.1807 187.066 51.9193 186.963 51.77C186.86 51.6113 186.664 51.532 186.375 51.532C186.179 51.532 186.002 51.588 185.843 51.7C185.694 51.8027 185.582 51.9613 185.507 52.176H184.667C184.546 51.9427 184.424 51.7793 184.303 51.686C184.182 51.5833 184.014 51.532 183.799 51.532C183.342 51.532 183.02 51.77 182.833 52.246C182.656 52.722 182.567 53.4173 182.567 54.332C182.567 55.256 182.721 55.9187 183.029 56.32C183.346 56.7213 183.822 56.922 184.457 56.922C184.886 56.922 185.208 56.8847 185.423 56.81V57.972C185.106 58.084 184.695 58.14 184.191 58.14ZM185.332 47.248H186.592V48.228H190.218L190.148 49.292H185.332V47.248ZM186.522 45.246H185.654V44.266H187.516V45.358H189.672L189.616 46.338H186.522V45.246ZM193.396 58.14C192.799 58.14 192.332 58.0793 191.996 57.958L189.868 52.778H191.352L193.074 56.978C193.867 57.0153 194.446 56.7867 194.81 56.292C195.183 55.7973 195.37 55.0273 195.37 53.982C195.37 53.366 195.314 52.8853 195.202 52.54C195.09 52.1947 194.903 51.952 194.642 51.812C194.381 51.6627 194.012 51.588 193.536 51.588H193.004V50.44H193.732C194.805 50.44 195.589 50.7293 196.084 51.308C196.588 51.8773 196.84 52.764 196.84 53.968C196.84 55.3867 196.527 56.4367 195.902 57.118C195.286 57.7993 194.451 58.14 193.396 58.14ZM200.808 58.14C200.304 58.14 199.819 58.1073 199.352 58.042C198.895 57.9767 198.522 57.8833 198.232 57.762V56.488C198.578 56.628 198.956 56.7353 199.366 56.81C199.777 56.8847 200.164 56.922 200.528 56.922C201.21 56.922 201.695 56.8613 201.984 56.74C202.274 56.6187 202.418 56.376 202.418 56.012C202.418 55.788 202.362 55.6107 202.25 55.48C202.138 55.34 201.984 55.228 201.788 55.144C201.592 55.06 201.289 54.9527 200.878 54.822L200.332 54.64C199.567 54.3787 198.993 54.094 198.61 53.786C198.237 53.4687 198.05 53.0253 198.05 52.456C198.05 51.7747 198.307 51.2473 198.82 50.874C199.334 50.4913 200.09 50.3 201.088 50.3C201.499 50.3 201.914 50.3327 202.334 50.398C202.754 50.4633 203.109 50.5427 203.398 50.636V51.896C203.1 51.784 202.759 51.6953 202.376 51.63C202.003 51.5647 201.648 51.532 201.312 51.532C200.724 51.532 200.276 51.5973 199.968 51.728C199.67 51.8493 199.52 52.078 199.52 52.414C199.52 52.61 199.581 52.7733 199.702 52.904C199.833 53.0347 200.006 53.1467 200.22 53.24C200.435 53.324 200.766 53.4407 201.214 53.59L201.62 53.716C202.423 53.9867 203.002 54.2853 203.356 54.612C203.711 54.9293 203.888 55.396 203.888 56.012C203.888 56.7307 203.618 57.2673 203.076 57.622C202.535 57.9673 201.779 58.14 200.808 58.14ZM208.241 53.24C208.241 52.8293 208.199 52.5073 208.115 52.274C208.031 52.0313 207.868 51.8493 207.625 51.728C207.392 51.5973 207.051 51.532 206.603 51.532C206.304 51.532 205.978 51.5647 205.623 51.63C205.278 51.6953 204.965 51.784 204.685 51.896V50.72C204.974 50.5987 205.32 50.5007 205.721 50.426C206.122 50.342 206.514 50.3 206.897 50.3C207.905 50.3 208.633 50.5193 209.081 50.958C209.538 51.3967 209.767 52.092 209.767 53.044V58H208.241V53.24ZM211.551 53.212C211.551 52.2787 211.831 51.56 212.391 51.056C212.96 50.552 213.824 50.3 214.981 50.3C216.138 50.3 216.992 50.552 217.543 51.056C218.103 51.56 218.383 52.2787 218.383 53.212V58H216.857V53.072C216.857 52.0453 216.232 51.532 214.981 51.532C214.346 51.532 213.87 51.658 213.553 51.91C213.236 52.162 213.077 52.5493 213.077 53.072V54.626C213.488 54.29 213.978 54.122 214.547 54.122H215.457L215.513 55.34H214.505C213.936 55.34 213.46 55.4987 213.077 55.816V58H211.551V53.212ZM223.02 53.24C223.02 52.8293 222.978 52.5073 222.894 52.274C222.81 52.0313 222.647 51.8493 222.404 51.728C222.171 51.5973 221.83 51.532 221.382 51.532C221.084 51.532 220.757 51.5647 220.402 51.63C220.057 51.6953 219.744 51.784 219.464 51.896V50.72C219.754 50.5987 220.099 50.5007 220.5 50.426C220.902 50.342 221.294 50.3 221.676 50.3C222.684 50.3 223.412 50.5193 223.86 50.958C224.318 51.3967 224.546 52.092 224.546 53.044V58H223.02V53.24ZM229.144 58.14C228.202 58.14 227.45 57.8273 226.89 57.202C226.33 56.5673 226.05 55.6107 226.05 54.332C226.05 53.0347 226.265 52.0407 226.694 51.35C227.133 50.65 227.749 50.3 228.542 50.3C228.906 50.3 229.2 50.3607 229.424 50.482C229.658 50.6033 229.868 50.7853 230.054 51.028C230.25 50.8133 230.507 50.6407 230.824 50.51C231.142 50.37 231.464 50.3 231.79 50.3C232.378 50.3 232.826 50.4773 233.134 50.832C233.442 51.1867 233.596 51.686 233.596 52.33V58H232.07V52.554C232.07 52.1807 232.019 51.9193 231.916 51.77C231.814 51.6113 231.618 51.532 231.328 51.532C231.132 51.532 230.955 51.588 230.796 51.7C230.647 51.8027 230.535 51.9613 230.46 52.176H229.62C229.499 51.9427 229.378 51.7793 229.256 51.686C229.135 51.5833 228.967 51.532 228.752 51.532C228.295 51.532 227.973 51.77 227.786 52.246C227.609 52.722 227.52 53.4173 227.52 54.332C227.52 55.256 227.674 55.9187 227.982 56.32C228.3 56.7213 228.776 56.922 229.41 56.922C229.84 56.922 230.162 56.8847 230.376 56.81V57.972C230.059 58.084 229.648 58.14 229.144 58.14ZM238.237 53.24C238.237 52.8293 238.195 52.5073 238.111 52.274C238.027 52.0313 237.864 51.8493 237.621 51.728C237.388 51.5973 237.047 51.532 236.599 51.532C236.3 51.532 235.974 51.5647 235.619 51.63C235.274 51.6953 234.961 51.784 234.681 51.896V50.72C234.97 50.5987 235.316 50.5007 235.717 50.426C236.118 50.342 236.51 50.3 236.893 50.3C237.901 50.3 238.629 50.5193 239.077 50.958C239.534 51.3967 239.763 52.092 239.763 53.044V58H238.237V53.24ZM245.663 58.14C245.112 58.14 244.622 58.0607 244.193 57.902C243.773 57.734 243.381 57.4913 243.017 57.174L242.933 58H241.547V50.44H243.073V56.012C243.334 56.2827 243.647 56.502 244.011 56.67C244.375 56.838 244.758 56.922 245.159 56.922C245.691 56.922 246.083 56.796 246.335 56.544C246.596 56.292 246.727 55.886 246.727 55.326V50.44H248.239V55.396C248.239 56.264 248.01 56.9407 247.553 57.426C247.105 57.902 246.475 58.14 245.663 58.14ZM250.024 50.44H251.55V52.82H253.734C254.266 52.82 254.639 52.708 254.854 52.484C255.078 52.26 255.19 51.9053 255.19 51.42V50.44H256.702V51.378C256.702 52.442 256.324 53.1093 255.568 53.38C255.969 53.52 256.244 53.744 256.394 54.052C256.552 54.36 256.632 54.7473 256.632 55.214V58H255.12V55.396C255.12 54.8547 255.017 54.486 254.812 54.29C254.606 54.0847 254.228 53.982 253.678 53.982H251.55V58H250.024V50.44ZM261.049 58.14C260.237 58.14 259.602 57.902 259.145 57.426C258.697 56.9407 258.473 56.264 258.473 55.396V50.44H259.999V55.326C259.999 55.886 260.12 56.292 260.363 56.544C260.615 56.796 261.011 56.922 261.553 56.922C261.954 56.922 262.341 56.838 262.715 56.67C263.088 56.502 263.401 56.2827 263.653 56.012V50.44H265.165V58H263.779L263.709 57.174C262.962 57.818 262.075 58.14 261.049 58.14ZM261.965 48.004H260.859V46.954H263.015V48.228H266.039L265.983 49.292H261.965V48.004ZM269.805 53.24C269.805 52.8293 269.763 52.5073 269.679 52.274C269.595 52.0313 269.432 51.8493 269.189 51.728C268.956 51.5973 268.615 51.532 268.167 51.532C267.869 51.532 267.542 51.5647 267.187 51.63C266.842 51.6953 266.529 51.784 266.249 51.896V50.72C266.539 50.5987 266.884 50.5007 267.285 50.426C267.687 50.342 268.079 50.3 268.461 50.3C269.469 50.3 270.197 50.5193 270.645 50.958C271.103 51.3967 271.331 52.092 271.331 53.044V58H269.805V53.24ZM274.613 58C273.633 58 273.143 57.5147 273.143 56.544V50.44H274.655V56.166C274.655 56.3807 274.702 56.5393 274.795 56.642C274.898 56.7447 275.057 56.796 275.271 56.796H275.915V58H274.613ZM279.284 58.14C278.416 58.14 277.66 58 277.016 57.72V56.516C277.651 56.7867 278.286 56.922 278.92 56.922C279.564 56.922 280.068 56.8333 280.432 56.656C280.806 56.4787 281.072 56.194 281.23 55.802C281.398 55.41 281.482 54.8827 281.482 54.22C281.482 53.2493 281.282 52.5587 280.88 52.148C280.488 51.7373 279.83 51.532 278.906 51.532C278.262 51.532 277.632 51.6673 277.016 51.938V50.72C277.679 50.44 278.421 50.3 279.242 50.3C280.484 50.3 281.412 50.6313 282.028 51.294C282.644 51.9567 282.952 52.932 282.952 54.22C282.952 55.508 282.654 56.4833 282.056 57.146C281.459 57.8087 280.535 58.14 279.284 58.14ZM278.487 49.306C277.937 49.306 277.507 49.166 277.199 48.886C276.882 48.606 276.723 48.2093 276.723 47.696C276.723 47.1733 276.887 46.7627 277.213 46.464C277.54 46.156 277.997 46.002 278.585 46.002H282.029L281.959 46.898H278.725C278.408 46.898 278.175 46.9633 278.025 47.094C277.867 47.2153 277.787 47.416 277.787 47.696C277.787 48.1907 278.053 48.438 278.585 48.438C279.08 48.438 279.327 48.242 279.327 47.85V47.556H280.265V47.85C280.265 48.046 280.317 48.186 280.419 48.27C280.522 48.354 280.685 48.396 280.909 48.396H281.791V49.278H280.811C280.569 49.278 280.359 49.2453 280.181 49.18C279.995 49.1053 279.864 48.9933 279.789 48.844C279.696 48.9933 279.523 49.11 279.271 49.194C279.019 49.2687 278.758 49.306 278.487 49.306ZM287.825 58.14C286.724 58.14 285.87 57.8833 285.263 57.37C284.666 56.8473 284.367 56.0773 284.367 55.06V50.44H285.893V55.116C285.893 55.732 286.052 56.1893 286.369 56.488C286.696 56.7773 287.181 56.922 287.825 56.922C288.469 56.922 288.955 56.7773 289.281 56.488C289.608 56.1893 289.771 55.732 289.771 55.116V50.44H291.283V55.06C291.283 56.0773 290.985 56.8473 290.387 57.37C289.79 57.8833 288.936 58.14 287.825 58.14Z" fill="#B9B9B9"/>
<path d="M188.143 116.32C186.927 116.32 185.764 116.235 184.655 116.064C183.567 115.893 182.692 115.669 182.031 115.392V111.904C182.799 112.224 183.674 112.48 184.655 112.672C185.636 112.864 186.532 112.96 187.343 112.96C188.794 112.96 189.818 112.853 190.415 112.64C191.012 112.405 191.311 111.968 191.311 111.328C191.311 110.923 191.194 110.592 190.959 110.336C190.746 110.08 190.426 109.867 189.999 109.696C189.594 109.504 188.943 109.259 188.047 108.96L186.671 108.512C184.943 107.915 183.674 107.264 182.863 106.56C182.074 105.835 181.679 104.832 181.679 103.552C181.679 101.973 182.287 100.725 183.503 99.808C184.74 98.8693 186.532 98.4 188.879 98.4C189.839 98.4 190.82 98.4747 191.823 98.624C192.847 98.7733 193.69 98.9547 194.351 99.168V102.624C193.69 102.347 192.9 102.133 191.983 101.984C191.087 101.835 190.255 101.76 189.487 101.76C188.335 101.76 187.428 101.888 186.767 102.144C186.106 102.379 185.775 102.816 185.775 103.456C185.775 103.947 185.999 104.32 186.447 104.576C186.895 104.832 187.727 105.152 188.943 105.536C189.327 105.643 189.818 105.803 190.415 106.016C191.652 106.443 192.623 106.88 193.327 107.328C194.052 107.776 194.575 108.32 194.895 108.96C195.236 109.579 195.407 110.368 195.407 111.328C195.407 112.971 194.767 114.219 193.487 115.072C192.228 115.904 190.447 116.32 188.143 116.32ZM204.525 105.376C204.525 104.139 204.28 103.232 203.789 102.656C203.32 102.059 202.445 101.76 201.165 101.76C200.482 101.76 199.746 101.835 198.957 101.984C198.168 102.133 197.453 102.336 196.813 102.592V99.424C197.474 99.1253 198.274 98.88 199.213 98.688C200.152 98.496 201.08 98.4 201.997 98.4C204.408 98.4 206.146 98.912 207.213 99.936C208.301 100.96 208.845 102.571 208.845 104.768V116H204.525V105.376ZM212.663 105.28C212.663 103.104 213.324 101.419 214.647 100.224C215.991 99.008 218.05 98.4 220.823 98.4C223.596 98.4 225.644 99.008 226.967 100.224C228.29 101.419 228.951 103.104 228.951 105.28V116H224.631V104.96C224.631 103.915 224.29 103.125 223.607 102.592C222.946 102.037 222.018 101.76 220.823 101.76C219.564 101.76 218.604 102.037 217.943 102.592C217.303 103.125 216.983 103.915 216.983 104.96V108.064C217.879 107.381 218.882 107.04 219.991 107.04H222.071L222.199 110.464H219.895C218.764 110.464 217.794 110.773 216.983 111.392V116H212.663V105.28ZM238.869 105.376C238.869 104.139 238.623 103.232 238.133 102.656C237.663 102.059 236.789 101.76 235.509 101.76C234.826 101.76 234.09 101.835 233.301 101.984C232.511 102.133 231.797 102.336 231.157 102.592V99.424C231.818 99.1253 232.618 98.88 233.557 98.688C234.495 98.496 235.423 98.4 236.341 98.4C238.751 98.4 240.49 98.912 241.557 99.936C242.645 100.96 243.189 102.571 243.189 104.768V116H238.869V105.376ZM254.399 116.32C251.86 116.32 249.929 115.733 248.607 114.56C247.284 113.387 246.623 111.744 246.623 109.632V108.544C246.623 107.776 246.772 107.104 247.071 106.528C247.391 105.931 247.817 105.28 248.351 104.576C248.692 104.128 248.937 103.776 249.087 103.52C249.257 103.243 249.343 102.976 249.343 102.72C249.343 102.4 249.268 102.187 249.119 102.08C248.969 101.973 248.703 101.92 248.319 101.92H246.239L246.591 98.72H251.071C252.841 98.72 253.727 99.5413 253.727 101.184C253.727 101.824 253.609 102.411 253.375 102.944C253.14 103.456 252.799 104.085 252.351 104.832C251.881 105.536 251.529 106.165 251.295 106.72C251.06 107.253 250.943 107.851 250.943 108.512V109.888C250.943 110.891 251.231 111.659 251.807 112.192C252.404 112.704 253.268 112.96 254.399 112.96C256.745 112.96 257.919 111.893 257.919 109.76V98.72H262.239V109.568C262.239 111.659 261.535 113.312 260.127 114.528C258.74 115.723 256.831 116.32 254.399 116.32ZM272.15 105.376C272.15 104.139 271.905 103.232 271.414 102.656C270.945 102.059 270.07 101.76 268.79 101.76C268.107 101.76 267.371 101.835 266.582 101.984C265.793 102.133 265.078 102.336 264.438 102.592V99.424C265.099 99.1253 265.899 98.88 266.838 98.688C267.777 98.496 268.705 98.4 269.622 98.4C272.033 98.4 273.771 98.912 274.838 99.936C275.926 100.96 276.47 102.571 276.47 104.768V116H272.15V105.376ZM287.712 116.32C285.195 116.32 283.179 115.883 281.664 115.008C280.171 114.133 279.424 112.715 279.424 110.752C279.424 109.963 279.605 109.248 279.968 108.608C280.331 107.947 280.875 107.413 281.6 107.008C280.96 106.731 280.448 106.293 280.064 105.696C279.68 105.077 279.488 104.352 279.488 103.52C279.488 101.877 280 100.619 281.024 99.744C282.069 98.848 283.467 98.4 285.216 98.4C286.411 98.4 287.403 98.5493 288.192 98.848V102.016C287.573 101.845 286.837 101.76 285.984 101.76C285.173 101.76 284.565 101.899 284.16 102.176C283.776 102.453 283.584 102.901 283.584 103.52C283.584 104.203 283.797 104.683 284.224 104.96C284.651 105.237 285.333 105.376 286.272 105.376H288.064L288.224 108.544H286.24C284.427 108.544 283.52 109.28 283.52 110.752C283.52 111.499 283.84 112.053 284.48 112.416C285.141 112.779 286.155 112.96 287.52 112.96C290.229 112.96 291.584 111.84 291.584 109.6V98.72H295.904V109.216C295.904 111.648 295.211 113.44 293.824 114.592C292.437 115.744 290.4 116.32 287.712 116.32ZM303.949 116C302.584 116 301.613 115.723 301.037 115.168C300.461 114.592 300.173 113.675 300.173 112.416V101.856C300.173 99.7013 300.877 98.1333 302.285 97.152H297.645V93.792H307.501V96.928C306.435 97.312 305.667 97.92 305.197 98.752C304.728 99.5627 304.493 100.661 304.493 102.048V111.296C304.493 112.192 304.931 112.64 305.805 112.64H306.893V116H303.949ZM313.921 116.32C311.852 116.32 310.017 115.979 308.417 115.296V112C309.868 112.64 311.361 112.96 312.897 112.96C314.924 112.96 316.364 112.544 317.217 111.712C318.07 110.859 318.497 109.408 318.497 107.36C318.497 105.312 318.07 103.872 317.217 103.04C316.364 102.187 314.924 101.76 312.897 101.76C311.361 101.76 309.868 102.08 308.417 102.72V99.424C310.017 98.7413 311.852 98.4 313.921 98.4C316.822 98.4 318.988 99.1573 320.417 100.672C321.868 102.187 322.593 104.416 322.593 107.36C322.593 110.304 321.868 112.533 320.417 114.048C318.988 115.563 316.822 116.32 313.921 116.32Z" fill="#EF782D"/>
<path d="M183.197 134.822H181.139V133.632H183.197V131.588H184.415V133.632H186.473V134.822H184.415V136.796H183.197V134.822ZM194.352 130.328L192.896 130.58V129.306L195.864 128.844V138H194.352V130.328ZM201.329 138.252C199.947 138.252 198.939 137.855 198.305 137.062C197.679 136.269 197.367 135.116 197.367 133.604C197.367 132.036 197.675 130.851 198.291 130.048C198.907 129.245 199.919 128.844 201.329 128.844C202.729 128.844 203.737 129.245 204.353 130.048C204.969 130.851 205.277 132.036 205.277 133.604C205.277 135.116 204.959 136.269 204.325 137.062C203.699 137.855 202.701 138.252 201.329 138.252ZM201.329 136.95C202.187 136.95 202.803 136.665 203.177 136.096C203.55 135.527 203.737 134.696 203.737 133.604C203.737 132.437 203.555 131.569 203.191 131C202.827 130.431 202.206 130.146 201.329 130.146C200.442 130.146 199.817 130.431 199.453 131C199.089 131.569 198.907 132.437 198.907 133.604C198.907 134.705 199.093 135.541 199.467 136.11C199.84 136.67 200.461 136.95 201.329 136.95ZM206.486 133.632H211.834V134.822H206.486V133.632ZM213.035 137.244C213.259 136.731 213.567 136.255 213.959 135.816C214.351 135.368 214.845 134.887 215.443 134.374C216.012 133.879 216.418 133.511 216.661 133.268C216.903 133.016 217.076 132.769 217.179 132.526C217.281 132.283 217.333 131.985 217.333 131.63C217.333 131.135 217.188 130.767 216.899 130.524C216.609 130.272 216.147 130.146 215.513 130.146C214.831 130.146 214.117 130.286 213.371 130.566V129.222C213.707 129.11 214.094 129.021 214.533 128.956C214.981 128.881 215.405 128.844 215.807 128.844C216.796 128.844 217.552 129.091 218.075 129.586C218.597 130.071 218.859 130.748 218.859 131.616C218.859 132.204 218.714 132.713 218.425 133.142C218.145 133.571 217.706 134.057 217.109 134.598L216.871 134.808C216.348 135.265 215.947 135.634 215.667 135.914C215.396 136.185 215.167 136.488 214.981 136.824H218.957V138H213.035V137.244ZM224.12 138.252C222.738 138.252 221.73 137.855 221.096 137.062C220.47 136.269 220.158 135.116 220.158 133.604C220.158 132.036 220.466 130.851 221.082 130.048C221.698 129.245 222.71 128.844 224.12 128.844C225.52 128.844 226.528 129.245 227.144 130.048C227.76 130.851 228.068 132.036 228.068 133.604C228.068 135.116 227.75 136.269 227.116 137.062C226.49 137.855 225.492 138.252 224.12 138.252ZM224.12 136.95C224.978 136.95 225.594 136.665 225.968 136.096C226.341 135.527 226.528 134.696 226.528 133.604C226.528 132.437 226.346 131.569 225.982 131C225.618 130.431 224.997 130.146 224.12 130.146C223.233 130.146 222.608 130.431 222.244 131C221.88 131.569 221.698 132.437 221.698 133.604C221.698 134.705 221.884 135.541 222.258 136.11C222.631 136.67 223.252 136.95 224.12 136.95ZM231.265 132.96C230.621 132.96 230.126 132.783 229.781 132.428C229.445 132.073 229.277 131.597 229.277 131C229.277 130.319 229.445 129.791 229.781 129.418C230.117 129.035 230.611 128.844 231.265 128.844C231.909 128.844 232.399 129.035 232.735 129.418C233.071 129.791 233.239 130.319 233.239 131C233.239 131.597 233.066 132.073 232.721 132.428C232.385 132.783 231.899 132.96 231.265 132.96ZM235.423 128.984H236.851L232.077 138H230.649L235.423 128.984ZM231.265 132.036C231.946 132.036 232.287 131.681 232.287 130.972C232.287 130.561 232.203 130.263 232.035 130.076C231.876 129.88 231.619 129.782 231.265 129.782C230.91 129.782 230.649 129.88 230.481 130.076C230.322 130.263 230.243 130.561 230.243 130.972C230.243 131.681 230.583 132.036 231.265 132.036ZM236.277 138.14C235.633 138.14 235.138 137.963 234.793 137.608C234.457 137.253 234.289 136.777 234.289 136.18C234.289 135.499 234.457 134.971 234.793 134.598C235.129 134.215 235.623 134.024 236.277 134.024C236.921 134.024 237.411 134.215 237.747 134.598C238.083 134.971 238.251 135.499 238.251 136.18C238.251 136.777 238.078 137.253 237.733 137.608C237.397 137.963 236.911 138.14 236.277 138.14ZM236.277 137.216C236.958 137.216 237.299 136.861 237.299 136.152C237.299 135.741 237.215 135.443 237.047 135.256C236.888 135.06 236.631 134.962 236.277 134.962C235.922 134.962 235.661 135.06 235.493 135.256C235.334 135.443 235.255 135.741 235.255 136.152C235.255 136.861 235.595 137.216 236.277 137.216ZM247.92 138.14C247.724 138.14 247.51 138.121 247.276 138.084C247.043 138.056 246.856 138.014 246.716 137.958L245.596 134.976H244.63L244.7 133.828H246.562L247.724 136.936C248.387 136.964 248.919 136.754 249.32 136.306C249.722 135.858 249.922 135.139 249.922 134.15C249.922 133.487 249.834 132.969 249.656 132.596C249.488 132.213 249.208 131.943 248.816 131.784C248.424 131.616 247.883 131.532 247.192 131.532C246.334 131.532 245.536 131.653 244.798 131.896V130.72C245.676 130.44 246.609 130.3 247.598 130.3C248.905 130.3 249.862 130.627 250.468 131.28C251.084 131.924 251.392 132.881 251.392 134.15C251.392 134.99 251.234 135.713 250.916 136.32C250.608 136.917 250.188 137.37 249.656 137.678C249.134 137.986 248.555 138.14 247.92 138.14ZM255.737 133.24C255.737 132.829 255.695 132.507 255.611 132.274C255.527 132.031 255.364 131.849 255.121 131.728C254.888 131.597 254.547 131.532 254.099 131.532C253.8 131.532 253.474 131.565 253.119 131.63C252.774 131.695 252.461 131.784 252.181 131.896V130.72C252.47 130.599 252.816 130.501 253.217 130.426C253.618 130.342 254.01 130.3 254.393 130.3C255.401 130.3 256.129 130.519 256.577 130.958C257.034 131.397 257.263 132.092 257.263 133.044V138H255.737V133.24ZM259.173 135.27C259.173 134.337 259.542 133.758 260.279 133.534L258.767 133.156V131.588C259.187 131.215 259.705 130.907 260.321 130.664C260.946 130.421 261.637 130.3 262.393 130.3C263.541 130.3 264.404 130.538 264.983 131.014C265.562 131.49 265.851 132.255 265.851 133.31V138H264.325V133.268C264.325 132.624 264.176 132.176 263.877 131.924C263.578 131.663 263.065 131.532 262.337 131.532C261.88 131.532 261.446 131.597 261.035 131.728C260.634 131.859 260.316 132.031 260.083 132.246V132.498L261.679 132.904V133.912C261.315 134.005 261.058 134.155 260.909 134.36C260.76 134.565 260.685 134.873 260.685 135.284V138H259.173V135.27ZM270.741 138.14C269.686 138.14 268.879 137.897 268.319 137.412C267.768 136.917 267.493 136.217 267.493 135.312V134.57C267.493 134.271 267.558 133.996 267.689 133.744C267.82 133.483 268.011 133.184 268.263 132.848C268.431 132.624 268.552 132.451 268.627 132.33C268.702 132.199 268.739 132.073 268.739 131.952C268.739 131.812 268.706 131.719 268.641 131.672C268.576 131.616 268.459 131.588 268.291 131.588H267.325L267.451 130.44H269.215C269.924 130.44 270.279 130.781 270.279 131.462C270.279 131.751 270.223 132.008 270.111 132.232C270.008 132.456 269.85 132.736 269.635 133.072C269.43 133.371 269.271 133.632 269.159 133.856C269.056 134.08 269.005 134.323 269.005 134.584V135.438C269.005 135.942 269.154 136.315 269.453 136.558C269.752 136.801 270.181 136.922 270.741 136.922C271.889 136.922 272.463 136.413 272.463 135.396V130.44H273.989V135.298C273.989 136.194 273.7 136.894 273.121 137.398C272.552 137.893 271.758 138.14 270.741 138.14ZM278.624 133.24C278.624 132.829 278.582 132.507 278.498 132.274C278.414 132.031 278.25 131.849 278.008 131.728C277.774 131.597 277.434 131.532 276.986 131.532C276.687 131.532 276.36 131.565 276.006 131.63C275.66 131.695 275.348 131.784 275.068 131.896V130.72C275.357 130.599 275.702 130.501 276.104 130.426C276.505 130.342 276.897 130.3 277.28 130.3C278.288 130.3 279.016 130.519 279.464 130.958C279.921 131.397 280.15 132.092 280.15 133.044V138H278.624V133.24ZM285.098 138.14C284.024 138.14 283.175 137.949 282.55 137.566C281.924 137.183 281.612 136.586 281.612 135.774C281.612 135.391 281.7 135.055 281.878 134.766C282.064 134.467 282.326 134.234 282.662 134.066C282.354 133.954 282.106 133.763 281.92 133.492C281.742 133.212 281.654 132.876 281.654 132.484C281.654 131.784 281.868 131.247 282.298 130.874C282.727 130.491 283.301 130.3 284.02 130.3C284.496 130.3 284.906 130.361 285.252 130.482V131.644C284.981 131.569 284.664 131.532 284.3 131.532C283.516 131.532 283.124 131.849 283.124 132.484C283.124 133.147 283.562 133.478 284.44 133.478H285.238L285.308 134.612H284.412C283.525 134.612 283.082 134.999 283.082 135.774C283.082 136.157 283.24 136.446 283.558 136.642C283.875 136.829 284.365 136.922 285.028 136.922C285.69 136.922 286.185 136.791 286.512 136.53C286.838 136.259 287.002 135.853 287.002 135.312V130.44H288.514V135.13C288.514 136.147 288.229 136.903 287.66 137.398C287.09 137.893 286.236 138.14 285.098 138.14ZM291.785 138C290.805 138 290.315 137.515 290.315 136.544V130.44H291.827V136.166C291.827 136.381 291.874 136.539 291.967 136.642C292.07 136.745 292.229 136.796 292.443 136.796H293.087V138H291.785ZM294.58 130.44H295.966L296.05 131.266C296.806 130.622 297.702 130.3 298.738 130.3C299.532 130.3 300.152 130.538 300.6 131.014C301.048 131.49 301.272 132.157 301.272 133.016V138H299.76V133.086C299.76 132.545 299.63 132.153 299.368 131.91C299.116 131.658 298.724 131.532 298.192 131.532C297.791 131.532 297.408 131.616 297.044 131.784C296.68 131.952 296.368 132.171 296.106 132.442V138H294.58V130.44ZM295.511 128.228H301.279V129.292H295.441L295.511 128.228ZM305.535 138.14C305.031 138.14 304.545 138.107 304.079 138.042C303.621 137.977 303.248 137.883 302.959 137.762V136.488C303.304 136.628 303.682 136.735 304.093 136.81C304.503 136.885 304.891 136.922 305.255 136.922C305.936 136.922 306.421 136.861 306.711 136.74C307 136.619 307.145 136.376 307.145 136.012C307.145 135.788 307.089 135.611 306.977 135.48C306.865 135.34 306.711 135.228 306.515 135.144C306.319 135.06 306.015 134.953 305.605 134.822L305.059 134.64C304.293 134.379 303.719 134.094 303.337 133.786C302.963 133.469 302.777 133.025 302.777 132.456C302.777 131.775 303.033 131.247 303.547 130.874C304.06 130.491 304.816 130.3 305.815 130.3C306.225 130.3 306.641 130.333 307.061 130.398C307.481 130.463 307.835 130.543 308.125 130.636V131.896C307.826 131.784 307.485 131.695 307.103 131.63C306.729 131.565 306.375 131.532 306.039 131.532C305.451 131.532 305.003 131.597 304.695 131.728C304.396 131.849 304.247 132.078 304.247 132.414C304.247 132.61 304.307 132.773 304.429 132.904C304.559 133.035 304.732 133.147 304.947 133.24C305.161 133.324 305.493 133.441 305.941 133.59L306.347 133.716C307.149 133.987 307.728 134.285 308.083 134.612C308.437 134.929 308.615 135.396 308.615 136.012C308.615 136.731 308.344 137.267 307.803 137.622C307.261 137.967 306.505 138.14 305.535 138.14ZM305.015 127.248H309.131L309.075 128.312H306.275V129.292H305.015V127.248ZM312.687 138.14C311.875 138.14 311.241 137.902 310.783 137.426C310.335 136.941 310.111 136.264 310.111 135.396V130.44H311.637V135.326C311.637 135.886 311.759 136.292 312.001 136.544C312.253 136.796 312.65 136.922 313.191 136.922C313.593 136.922 313.98 136.838 314.353 136.67C314.727 136.502 315.039 136.283 315.291 136.012V130.44H316.803V138H315.417L315.347 137.174C314.601 137.818 313.714 138.14 312.687 138.14Z" fill="#ECECEC"/>
<path d="M184.815 245.18C184.167 245.18 183.543 245.138 182.943 245.054C182.355 244.97 181.875 244.85 181.503 244.694V243.056C181.947 243.236 182.433 243.374 182.961 243.47C183.489 243.566 183.987 243.614 184.455 243.614C185.331 243.614 185.955 243.536 186.327 243.38C186.699 243.224 186.885 242.912 186.885 242.444C186.885 242.156 186.813 241.928 186.669 241.76C186.525 241.58 186.327 241.436 186.075 241.328C185.823 241.22 185.433 241.082 184.905 240.914L184.203 240.68C183.219 240.344 182.481 239.978 181.989 239.582C181.509 239.174 181.269 238.604 181.269 237.872C181.269 236.996 181.599 236.318 182.259 235.838C182.919 235.346 183.891 235.1 185.175 235.1C185.703 235.1 186.237 235.142 186.777 235.226C187.317 235.31 187.773 235.412 188.145 235.532V237.152C187.761 237.008 187.323 236.894 186.831 236.81C186.351 236.726 185.895 236.684 185.463 236.684C184.707 236.684 184.131 236.768 183.735 236.936C183.351 237.092 183.159 237.386 183.159 237.818C183.159 238.07 183.237 238.28 183.393 238.448C183.561 238.616 183.783 238.76 184.059 238.88C184.335 238.988 184.761 239.138 185.337 239.33L185.859 239.492C186.891 239.84 187.635 240.224 188.091 240.644C188.547 241.052 188.775 241.652 188.775 242.444C188.775 243.368 188.427 244.058 187.731 244.514C187.035 244.958 186.063 245.18 184.815 245.18ZM194.371 238.88C194.371 238.352 194.317 237.938 194.209 237.638C194.101 237.326 193.891 237.092 193.579 236.936C193.279 236.768 192.841 236.684 192.265 236.684C191.881 236.684 191.461 236.726 191.005 236.81C190.561 236.894 190.159 237.008 189.799 237.152V235.64C190.171 235.484 190.615 235.358 191.131 235.262C191.647 235.154 192.151 235.1 192.643 235.1C193.939 235.1 194.875 235.382 195.451 235.946C196.039 236.51 196.333 237.404 196.333 238.628V245H194.371V238.88ZM198.627 238.844C198.627 237.644 198.987 236.72 199.707 236.072C200.439 235.424 201.549 235.1 203.037 235.1C204.525 235.1 205.623 235.424 206.331 236.072C207.051 236.72 207.411 237.644 207.411 238.844V245H205.449V238.664C205.449 237.344 204.645 236.684 203.037 236.684C202.221 236.684 201.609 236.846 201.201 237.17C200.793 237.494 200.589 237.992 200.589 238.664V240.662C201.117 240.23 201.747 240.014 202.479 240.014H203.649L203.721 241.58H202.425C201.693 241.58 201.081 241.784 200.589 242.192V245H198.627V238.844ZM213.373 238.88C213.373 238.352 213.319 237.938 213.211 237.638C213.103 237.326 212.893 237.092 212.581 236.936C212.281 236.768 211.843 236.684 211.267 236.684C210.883 236.684 210.463 236.726 210.007 236.81C209.563 236.894 209.161 237.008 208.801 237.152V235.64C209.173 235.484 209.617 235.358 210.133 235.262C210.649 235.154 211.153 235.1 211.645 235.1C212.941 235.1 213.877 235.382 214.453 235.946C215.041 236.51 215.335 237.404 215.335 238.628V245H213.373V238.88ZM221.625 245.18C220.269 245.18 219.231 244.868 218.511 244.244C217.803 243.608 217.449 242.708 217.449 241.544V240.59C217.449 240.206 217.533 239.852 217.701 239.528C217.869 239.192 218.115 238.808 218.439 238.376C218.655 238.088 218.811 237.866 218.907 237.71C219.003 237.542 219.051 237.38 219.051 237.224C219.051 237.044 219.009 236.924 218.925 236.864C218.841 236.792 218.691 236.756 218.475 236.756H217.233L217.395 235.28H219.663C220.575 235.28 221.031 235.718 221.031 236.594C221.031 236.966 220.959 237.296 220.815 237.584C220.683 237.872 220.479 238.232 220.203 238.664C219.939 239.048 219.735 239.384 219.591 239.672C219.459 239.96 219.393 240.272 219.393 240.608V241.706C219.393 242.354 219.585 242.834 219.969 243.146C220.353 243.458 220.905 243.614 221.625 243.614C223.101 243.614 223.839 242.96 223.839 241.652V235.28H225.801V241.526C225.801 242.678 225.429 243.578 224.685 244.226C223.953 244.862 222.933 245.18 221.625 245.18ZM231.76 238.88C231.76 238.352 231.706 237.938 231.598 237.638C231.49 237.326 231.28 237.092 230.968 236.936C230.668 236.768 230.23 236.684 229.654 236.684C229.27 236.684 228.85 236.726 228.394 236.81C227.95 236.894 227.548 237.008 227.188 237.152V235.64C227.56 235.484 228.004 235.358 228.52 235.262C229.036 235.154 229.54 235.1 230.032 235.1C231.328 235.1 232.264 235.382 232.84 235.946C233.428 236.51 233.722 237.404 233.722 238.628V245H231.76V238.88ZM240.084 245.18C238.704 245.18 237.612 244.934 236.808 244.442C236.004 243.95 235.602 243.182 235.602 242.138C235.602 241.646 235.716 241.214 235.944 240.842C236.184 240.458 236.52 240.158 236.952 239.942C236.556 239.798 236.238 239.552 235.998 239.204C235.77 238.844 235.656 238.412 235.656 237.908C235.656 237.008 235.932 236.318 236.484 235.838C237.036 235.346 237.774 235.1 238.698 235.1C239.31 235.1 239.838 235.178 240.282 235.334V236.828C239.934 236.732 239.526 236.684 239.058 236.684C238.05 236.684 237.546 237.092 237.546 237.908C237.546 238.76 238.11 239.186 239.238 239.186H240.264L240.354 240.644H239.202C238.062 240.644 237.492 241.142 237.492 242.138C237.492 242.63 237.696 243.002 238.104 243.254C238.512 243.494 239.142 243.614 239.994 243.614C240.846 243.614 241.482 243.446 241.902 243.11C242.322 242.762 242.532 242.24 242.532 241.544V235.28H244.476V241.31C244.476 242.618 244.11 243.59 243.378 244.226C242.646 244.862 241.548 245.18 240.084 245.18ZM248.682 245C247.422 245 246.792 244.376 246.792 243.128V235.28H248.736V242.642C248.736 242.918 248.796 243.122 248.916 243.254C249.048 243.386 249.252 243.452 249.528 243.452H250.356V245H248.682ZM252.276 235.28H254.058L254.166 236.342C255.138 235.514 256.29 235.1 257.622 235.1C258.642 235.1 259.44 235.406 260.016 236.018C260.592 236.63 260.88 237.488 260.88 238.592V245H258.936V238.682C258.936 237.986 258.768 237.482 258.432 237.17C258.108 236.846 257.604 236.684 256.92 236.684C256.404 236.684 255.912 236.792 255.444 237.008C254.976 237.224 254.574 237.506 254.238 237.854V245H252.276V235.28ZM253.472 232.436H260.888V233.804H253.382L253.472 232.436ZM266.36 245.18C265.712 245.18 265.088 245.138 264.488 245.054C263.9 244.97 263.42 244.85 263.048 244.694V243.056C263.492 243.236 263.978 243.374 264.506 243.47C265.034 243.566 265.532 243.614 266 243.614C266.876 243.614 267.5 243.536 267.872 243.38C268.244 243.224 268.43 242.912 268.43 242.444C268.43 242.156 268.358 241.928 268.214 241.76C268.07 241.58 267.872 241.436 267.62 241.328C267.368 241.22 266.978 241.082 266.45 240.914L265.748 240.68C264.764 240.344 264.026 239.978 263.534 239.582C263.054 239.174 262.814 238.604 262.814 237.872C262.814 236.996 263.144 236.318 263.804 235.838C264.464 235.346 265.436 235.1 266.72 235.1C267.248 235.1 267.782 235.142 268.322 235.226C268.862 235.31 269.318 235.412 269.69 235.532V237.152C269.306 237.008 268.868 236.894 268.376 236.81C267.896 236.726 267.44 236.684 267.008 236.684C266.252 236.684 265.676 236.768 265.28 236.936C264.896 237.092 264.704 237.386 264.704 237.818C264.704 238.07 264.782 238.28 264.938 238.448C265.106 238.616 265.328 238.76 265.604 238.88C265.88 238.988 266.306 239.138 266.882 239.33L267.404 239.492C268.436 239.84 269.18 240.224 269.636 240.644C270.092 241.052 270.32 241.652 270.32 242.444C270.32 243.368 269.972 244.058 269.276 244.514C268.58 244.958 267.608 245.18 266.36 245.18ZM265.692 231.176H270.984L270.912 232.544H267.312V233.804H265.692V231.176ZM275.556 245.18C274.512 245.18 273.696 244.874 273.108 244.262C272.532 243.638 272.244 242.768 272.244 241.652V235.28H274.206V241.562C274.206 242.282 274.362 242.804 274.674 243.128C274.998 243.452 275.508 243.614 276.204 243.614C276.72 243.614 277.218 243.506 277.698 243.29C278.178 243.074 278.58 242.792 278.904 242.444V235.28H280.848V245H279.066L278.976 243.938C278.016 244.766 276.876 245.18 275.556 245.18Z" fill="#ECECEC"/>
<path d="M184.485 270.14C183.421 270.14 182.614 269.893 182.063 269.398C181.512 268.903 181.237 268.208 181.237 267.312V266.57C181.237 266.271 181.298 265.996 181.419 265.744C181.55 265.492 181.694 265.263 181.853 265.058C182.021 264.843 182.166 264.647 182.287 264.47C182.418 264.283 182.483 264.111 182.483 263.952C182.483 263.803 182.45 263.705 182.385 263.658C182.32 263.611 182.203 263.588 182.035 263.588H181.069L181.195 262.44H182.959C183.668 262.44 184.023 262.781 184.023 263.462C184.023 263.779 183.958 264.064 183.827 264.316C183.706 264.568 183.556 264.811 183.379 265.044C183.211 265.277 183.062 265.52 182.931 265.772C182.81 266.015 182.749 266.285 182.749 266.584V267.438C182.749 267.951 182.903 268.329 183.211 268.572C183.519 268.805 183.944 268.922 184.485 268.922C185.036 268.922 185.46 268.801 185.759 268.558C186.058 268.315 186.207 267.928 186.207 267.396V262.44H187.733V267.298C187.733 268.194 187.444 268.894 186.865 269.398C186.296 269.893 185.502 270.14 184.485 270.14ZM192.368 270V265.24C192.368 264.857 192.326 264.54 192.242 264.288C192.158 264.036 191.999 263.849 191.766 263.728C191.533 263.597 191.187 263.532 190.73 263.532C190.431 263.532 190.105 263.565 189.75 263.63C189.405 263.695 189.092 263.784 188.812 263.896V262.72C189.092 262.599 189.428 262.501 189.82 262.426C190.221 262.342 190.623 262.3 191.024 262.3C192.032 262.3 192.76 262.519 193.208 262.958C193.665 263.397 193.894 264.092 193.894 265.044V270H192.368ZM198.842 270.14C198.17 270.14 197.573 270.061 197.05 269.902C196.527 269.743 196.112 269.491 195.804 269.146C195.505 268.801 195.356 268.343 195.356 267.774C195.356 267.391 195.445 267.055 195.622 266.766C195.799 266.467 196.061 266.234 196.406 266.066C196.117 265.954 195.874 265.763 195.678 265.492C195.491 265.221 195.398 264.885 195.398 264.484C195.398 263.765 195.617 263.224 196.056 262.86C196.504 262.487 197.073 262.3 197.764 262.3C198.035 262.3 198.268 262.319 198.464 262.356C198.66 262.384 198.837 262.426 198.996 262.482V263.644C198.725 263.569 198.408 263.532 198.044 263.532C197.671 263.532 197.381 263.607 197.176 263.756C196.971 263.905 196.868 264.148 196.868 264.484C196.868 264.839 196.985 265.095 197.218 265.254C197.451 265.403 197.773 265.478 198.184 265.478H198.982L199.052 266.612H198.156C197.269 266.612 196.826 266.999 196.826 267.774C196.826 268.157 196.985 268.446 197.302 268.642C197.619 268.829 198.109 268.922 198.772 268.922C200.088 268.922 200.746 268.385 200.746 267.312V262.44H202.258V267.13C202.258 268.147 201.973 268.903 201.404 269.398C200.835 269.893 199.981 270.14 198.842 270.14ZM205.319 270C204.806 270 204.433 269.874 204.199 269.622C203.966 269.37 203.849 269.011 203.849 268.544V263.91C203.849 263.443 203.933 263.051 204.101 262.734C204.269 262.417 204.461 262.151 204.675 261.936C204.89 261.712 205.081 261.511 205.249 261.334C205.417 261.147 205.501 260.951 205.501 260.746C205.501 260.475 205.422 260.293 205.263 260.2C205.114 260.107 204.885 260.06 204.577 260.06C204.073 260.06 203.565 260.2 203.051 260.48V259.36C203.331 259.192 203.653 259.066 204.017 258.982C204.391 258.889 204.75 258.842 205.095 258.842C205.758 258.842 206.253 258.982 206.579 259.262C206.906 259.542 207.069 259.939 207.069 260.452C207.069 260.751 207.009 261.012 206.887 261.236C206.775 261.451 206.635 261.651 206.467 261.838C206.299 262.025 206.131 262.216 205.963 262.412C205.795 262.608 205.651 262.827 205.529 263.07C205.417 263.313 205.361 263.607 205.361 263.952V268.166C205.361 268.409 205.399 268.577 205.473 268.67C205.557 268.754 205.725 268.796 205.977 268.796H206.621V270H205.319ZM208.147 270V262.44H209.673V264.82H211.857C212.407 264.82 212.785 264.703 212.991 264.47C213.205 264.227 213.313 263.877 213.313 263.42V262.44H214.825V263.378C214.825 263.845 214.741 264.255 214.573 264.61C214.414 264.965 214.12 265.221 213.691 265.38C214.12 265.529 214.405 265.767 214.545 266.094C214.685 266.411 214.755 266.785 214.755 267.214V270H213.243V267.396C213.243 266.855 213.14 266.486 212.935 266.29C212.729 266.085 212.351 265.982 211.801 265.982H209.673V270H208.147ZM211.612 261.292V260.004H210.506V258.954H212.662V260.228H215.686L215.63 261.292H211.612ZM218.598 270C218.001 270 217.604 269.841 217.408 269.524C217.221 269.197 217.128 268.763 217.128 268.222V262.132C217.128 261.525 217.011 261.073 216.778 260.774C216.545 260.466 216.181 260.223 215.686 260.046V258.884H219.984V260.088H217.604C217.977 260.293 218.243 260.564 218.402 260.9C218.561 261.227 218.64 261.684 218.64 262.272V268.166C218.64 268.409 218.677 268.577 218.752 268.67C218.836 268.754 219.004 268.796 219.256 268.796H219.9V270H218.598ZM224.12 270.14C223.056 270.14 222.249 269.893 221.698 269.398C221.157 268.903 220.886 268.208 220.886 267.312V266.57C220.886 266.271 220.947 265.996 221.068 265.744C221.199 265.492 221.343 265.263 221.502 265.058C221.67 264.843 221.815 264.647 221.936 264.47C222.067 264.283 222.132 264.111 222.132 263.952C222.132 263.803 222.099 263.705 222.034 263.658C221.969 263.611 221.852 263.588 221.684 263.588H220.718L220.844 262.44H222.608C223.317 262.44 223.672 262.781 223.672 263.462C223.672 263.779 223.607 264.064 223.476 264.316C223.355 264.568 223.205 264.811 223.028 265.044C222.86 265.277 222.711 265.52 222.58 265.772C222.459 266.015 222.398 266.285 222.398 266.584V267.438C222.398 267.951 222.547 268.329 222.846 268.572C223.154 268.805 223.579 268.922 224.12 268.922C224.671 268.922 225.095 268.801 225.394 268.558C225.702 268.315 225.856 267.928 225.856 267.396V266.472C225.856 266.033 225.786 265.73 225.646 265.562C225.506 265.385 225.245 265.296 224.862 265.296H224.47L224.54 264.19H224.82C225.212 264.19 225.483 264.097 225.632 263.91C225.781 263.714 225.856 263.415 225.856 263.014V262.3H227.382V262.986C227.382 263.425 227.317 263.789 227.186 264.078C227.055 264.358 226.785 264.577 226.374 264.736C226.803 264.913 227.079 265.147 227.2 265.436C227.321 265.725 227.382 266.085 227.382 266.514V267.298C227.382 268.194 227.093 268.894 226.514 269.398C225.935 269.893 225.137 270.14 224.12 270.14ZM231.036 270.14C230.168 270.14 229.412 270 228.768 269.72V268.516C229.048 268.637 229.352 268.735 229.678 268.81C230.014 268.885 230.346 268.922 230.672 268.922C231.307 268.922 231.811 268.833 232.184 268.656C232.558 268.479 232.824 268.194 232.982 267.802C233.15 267.401 233.234 266.873 233.234 266.22C233.234 265.249 233.034 264.559 232.632 264.148C232.24 263.737 231.582 263.532 230.658 263.532C230.322 263.532 229.996 263.569 229.678 263.644C229.361 263.709 229.058 263.807 228.768 263.938V262.72C229.086 262.589 229.426 262.487 229.79 262.412C230.164 262.337 230.565 262.3 230.994 262.3C232.245 262.3 233.174 262.636 233.78 263.308C234.396 263.971 234.704 264.941 234.704 266.22C234.704 267.489 234.41 268.46 233.822 269.132C233.244 269.804 232.315 270.14 231.036 270.14ZM231.023 261.292V259.248H235.139L235.083 260.312H232.283V261.292H231.023ZM238.597 270.14C238.103 270.14 237.622 270.107 237.155 270.042C236.698 269.977 236.32 269.883 236.021 269.762V268.488C236.376 268.628 236.759 268.735 237.169 268.81C237.589 268.885 237.972 268.922 238.317 268.922C238.961 268.922 239.437 268.866 239.745 268.754C240.053 268.633 240.207 268.385 240.207 268.012C240.207 267.741 240.128 267.536 239.969 267.396C239.811 267.256 239.577 267.135 239.269 267.032C238.961 266.92 238.579 266.789 238.121 266.64C237.692 266.491 237.305 266.327 236.959 266.15C236.614 265.973 236.339 265.749 236.133 265.478C235.937 265.207 235.839 264.867 235.839 264.456C235.839 263.793 236.091 263.271 236.595 262.888C237.099 262.496 237.86 262.3 238.877 262.3C239.307 262.3 239.731 262.333 240.151 262.398C240.571 262.463 240.917 262.543 241.187 262.636V263.896C240.879 263.775 240.534 263.686 240.151 263.63C239.778 263.565 239.428 263.532 239.101 263.532C238.56 263.532 238.126 263.593 237.799 263.714C237.473 263.826 237.309 264.059 237.309 264.414C237.309 264.647 237.393 264.834 237.561 264.974C237.729 265.105 237.967 265.226 238.275 265.338C238.593 265.441 238.971 265.567 239.409 265.716C239.904 265.875 240.319 266.052 240.655 266.248C240.991 266.435 241.243 266.668 241.411 266.948C241.589 267.219 241.677 267.573 241.677 268.012C241.677 268.749 241.397 269.291 240.837 269.636C240.287 269.972 239.54 270.14 238.597 270.14ZM239.702 273.654C239.189 273.654 238.787 273.537 238.498 273.304C238.199 273.08 238.05 272.8 238.05 272.464V271.75H237.294L237.35 270.798H239.142V272.212C239.142 272.52 239.329 272.674 239.702 272.674C240.085 272.674 240.276 272.52 240.276 272.212V270.798H241.382V272.31C241.382 272.674 241.242 272.987 240.962 273.248C240.682 273.519 240.262 273.654 239.702 273.654ZM247.29 270.14C246.721 270.14 246.221 270.051 245.792 269.874C245.372 269.697 244.989 269.463 244.644 269.174L244.56 270H243.174V262.44H244.7V268.012C244.943 268.273 245.246 268.493 245.61 268.67C245.974 268.838 246.366 268.922 246.786 268.922C247.309 268.922 247.701 268.801 247.962 268.558C248.223 268.306 248.354 267.895 248.354 267.326V262.44H249.866V267.396C249.866 268.273 249.637 268.95 249.18 269.426C248.723 269.902 248.093 270.14 247.29 270.14Z" fill="#ECECEC"/>
<defs>
<linearGradient id="paint0_linear_479_902" x1="90.7134" y1="259.247" x2="90.7135" y2="127.384" gradientUnits="userSpaceOnUse">
<stop stop-color="#656565"/>
<stop offset="1" stop-color="#D9D9D9" stop-opacity="0"/>
<stop offset="1" stop-color="#D9D9D9" stop-opacity="0"/>
</linearGradient>
<linearGradient id="paint1_linear_479_902" x1="91.1987" y1="0" x2="91.1987" y2="130.201" gradientUnits="userSpaceOnUse">
<stop stop-color="#656565"/>
<stop offset="1" stop-color="#D9D9D9" stop-opacity="0"/>
<stop offset="1" stop-color="#D9D9D9" stop-opacity="0"/>
</linearGradient>
</defs>
</svg>
