<svg width="75" height="74" viewBox="0 0 75 74" fill="none" xmlns="http://www.w3.org/2000/svg">
<path d="M16.8678 0.996338C7.55293 0.996338 0.00170898 8.34363 0.00170898 17.407V56.6324C0.00170898 65.6957 7.55293 73.043 16.8678 73.043H57.182C66.4969 73.043 74.0481 65.6957 74.0481 56.6324V17.407C74.0481 8.34363 66.4969 0.996338 57.182 0.996338H16.8678Z" fill="#242424"/>
<path fill-rule="evenodd" clip-rule="evenodd" d="M38.4428 42.1652L40.0107 34.4912H38.0184L37.3671 37.7741C37.1287 37.4476 36.8179 37.2137 36.4348 37.0725C36.0516 36.9313 35.677 36.8607 35.3109 36.8607C34.6979 36.8607 34.153 37.0063 33.6762 37.2975C33.1994 37.58 32.795 37.9859 32.4629 38.5154C32.233 38.8508 32.0372 39.2479 31.8755 39.7068C31.7137 40.1657 31.6328 40.6908 31.6328 41.2821C31.6498 41.741 31.7179 42.147 31.8371 42.5C31.9563 42.853 32.1309 43.1574 32.3608 43.4134C32.5992 43.6693 32.8716 43.859 33.1781 43.9826C33.4846 44.115 33.8337 44.1811 34.2254 44.1811C34.5234 44.1811 34.8767 44.1194 35.2854 43.9958C35.5875 43.9127 35.8695 43.7718 36.1314 43.573C36.4299 42.7832 37.1717 42.2239 38.0396 42.2239C38.1482 42.2239 38.2548 42.2326 38.3588 42.2495L38.4428 42.1652ZM36.9967 39.8127C36.9967 40.0598 36.9712 40.3246 36.9201 40.607C36.6476 41.9925 36.0048 42.6985 34.9916 42.725C34.6 42.725 34.2892 42.5882 34.0593 42.3146C33.8294 42.0411 33.7145 41.6704 33.7145 41.2027C33.7145 40.5143 33.8848 39.8833 34.2254 39.3097C34.6 38.6566 35.0938 38.3301 35.7068 38.3301C36.1325 38.3213 36.4561 38.4492 36.6774 38.714C36.9073 38.9787 37.0137 39.345 36.9967 39.8127Z" fill="#EF782D"/>
<path d="M9.69336 36.318H12.4264L10.8811 43.9296H13.0266L14.5847 36.318H17.3305L17.7265 34.4912H10.0765L9.69336 36.318Z" fill="#EF782D"/>
<path fill-rule="evenodd" clip-rule="evenodd" d="M14.9826 39.3097H17.0388C17.2091 38.5772 17.6859 38.2109 18.4692 38.2109C19.0566 38.2109 19.3589 38.4228 19.3759 38.8464C19.3759 39.1111 19.3248 39.3185 19.2227 39.4685C19.1546 39.5921 19.0268 39.6892 18.8395 39.7598C18.6607 39.8215 18.4351 39.8657 18.1627 39.8921C17.8902 39.9186 17.6944 39.9363 17.5752 39.9451C16.4173 40.0775 15.5914 40.3246 15.0976 40.6864C14.4846 41.0924 14.178 41.688 14.178 42.4735C14.2206 43.5855 14.923 44.1414 16.2853 44.1414C16.8132 44.1238 17.3027 44.0179 17.754 43.8237C18.1201 43.6384 18.3798 43.4575 18.533 43.281H18.5841L18.6352 43.9296H20.6914L20.7041 43.8767C20.4913 43.762 20.4189 43.559 20.487 43.2677C20.487 42.9765 20.5253 42.7294 20.602 42.5264L21.2661 39.3891C21.3427 38.9831 21.3725 38.6522 21.3555 38.3963C21.3384 38.1315 21.2235 37.8756 21.0106 37.6285C20.5764 37.1519 19.8144 36.9137 18.7246 36.9137C17.6944 36.8872 16.8557 37.0813 16.2087 37.4961C15.834 37.752 15.5488 38.0521 15.353 38.3963C15.1572 38.7405 15.0337 39.0449 14.9826 39.3097ZM17.8817 41.0041C18.4351 40.907 18.8225 40.7923 19.0439 40.6599L18.9672 41.0835C18.8651 41.5601 18.6863 41.9528 18.4309 42.2617C18.0307 42.6588 17.605 42.875 17.1537 42.9103C16.6003 42.9103 16.3108 42.6765 16.2853 42.2087C16.2853 41.8204 16.4641 41.5204 16.8217 41.3086C16.9664 41.2203 17.3198 41.1188 17.8817 41.0041Z" fill="#EF782D"/>
<path d="M25.1688 34.4912H23.1892L21.248 43.9296H23.2275L25.1688 34.4912Z" fill="#EF782D"/>
<path fill-rule="evenodd" clip-rule="evenodd" d="M25.0609 39.3097H27.1171C27.2874 38.5772 27.7642 38.2109 28.5475 38.2109C29.1349 38.2109 29.4372 38.4228 29.4542 38.8464C29.4542 39.1111 29.4031 39.3185 29.301 39.4685C29.2328 39.5921 29.1051 39.6892 28.9178 39.7598C28.739 39.8215 28.5134 39.8657 28.2409 39.8921C27.9685 39.9186 27.7727 39.9363 27.6535 39.9451C26.4955 40.0775 25.6697 40.3246 25.1759 40.6864C24.5628 41.0924 24.2563 41.688 24.2563 42.4735C24.2989 43.5855 25.0013 44.1414 26.3636 44.1414C26.8915 44.1238 27.381 44.0179 27.8323 43.8237C28.1984 43.6384 28.4581 43.4575 28.6113 43.281H28.6624L28.7135 43.9296H30.7696L30.7824 43.8767C30.5696 43.762 30.4972 43.559 30.5653 43.2677C30.5653 42.9765 30.6036 42.7294 30.6802 42.5264L31.3444 39.3891C31.421 38.9831 31.4508 38.6522 31.4338 38.3963C31.4167 38.1315 31.3018 37.8756 31.0889 37.6285C30.6547 37.1519 29.8927 36.9137 28.8029 36.9137C27.7727 36.8872 26.934 37.0813 26.2869 37.4961C25.9123 37.752 25.6271 38.0521 25.4313 38.3963C25.2355 38.7405 25.112 39.0449 25.0609 39.3097ZM27.96 41.0041C28.5134 40.907 28.9008 40.7923 29.1222 40.6599L29.0455 41.0835C28.9434 41.5601 28.7646 41.9528 28.5091 42.2617C28.109 42.6588 27.6833 42.875 27.232 42.9103C26.6786 42.9103 26.3891 42.6765 26.3636 42.2087C26.3636 41.8204 26.5424 41.5204 26.9 41.3086C27.0447 41.2203 27.398 41.1188 27.96 41.0041Z" fill="#EF782D"/>
<path fill-rule="evenodd" clip-rule="evenodd" d="M38.8333 46.3054L37.6959 51.8723H39.8287L40.5567 48.3907H42.2425C43.0684 48.3907 43.4898 48.6776 43.5068 49.2512C43.5068 49.4895 43.46 49.7719 43.3663 50.0984C43.2727 50.5661 43.2216 50.9147 43.2131 51.1442C43.2046 51.3736 43.2471 51.6163 43.3408 51.8723H45.5247C45.431 51.6163 45.3885 51.3825 45.397 51.1707C45.4055 50.9589 45.4566 50.575 45.5502 50.019C45.6779 49.4983 45.7248 49.11 45.6907 48.8541C45.6907 48.2363 45.3842 47.8171 44.7712 47.5965L44.784 47.5833C45.2437 47.4421 45.6439 47.2038 45.9844 46.8684C46.5464 46.3654 46.8273 45.677 46.8273 44.8033C46.8614 43.9296 46.5336 43.2633 45.844 42.8044C45.4268 42.5573 44.8265 42.4338 44.0432 42.4338H41.5271L40.0804 44.1614C40.0856 44.2227 40.0882 44.2847 40.0882 44.3473C40.0882 45.2283 39.5706 45.984 38.8333 46.3054ZM40.927 46.6699L41.4251 44.2606H43.2131C44.1326 44.2606 44.5839 44.6224 44.5668 45.3461C44.5328 45.6991 44.3923 46.008 44.1454 46.2727C43.8985 46.5375 43.4813 46.6699 42.8938 46.6699H40.927Z" fill="#EF782D"/>
<path fill-rule="evenodd" clip-rule="evenodd" d="M47.6905 50.9191C48.2609 51.7311 49.3337 52.1326 50.9088 52.1238C51.4452 52.1238 51.9348 52.0708 52.3775 51.9649C52.8288 51.859 53.2545 51.6869 53.6547 51.4487C54.0633 51.2016 54.4422 50.8706 54.7913 50.4558C55.3277 49.8028 55.7193 49.0923 55.9662 48.3246C56.2217 47.5568 56.3366 46.8022 56.3111 46.0609C56.3111 45.4873 56.2302 44.9622 56.0684 44.4856C55.9066 44.0091 55.664 43.5987 55.3405 43.2545C55.0169 42.9103 54.604 42.6456 54.1016 42.4603C53.5993 42.2749 53.0161 42.1823 52.352 42.1823C50.7003 42.1823 49.3806 42.7471 48.3929 43.8767C47.8906 44.4768 47.4989 45.1696 47.218 45.955C46.9455 46.7316 46.8093 47.495 46.8093 48.2451C46.8263 49.2071 47.1201 50.0984 47.6905 50.9191ZM53.3737 48.8805C52.8628 49.8248 52.0966 50.297 51.0749 50.297C50.6236 50.3235 50.1809 50.1867 49.7467 49.8866C49.321 49.5866 49.1209 48.9335 49.1464 47.9274C49.1975 46.992 49.4189 46.1624 49.8105 45.4387C50.3214 44.4856 51.0834 44.0091 52.0966 44.0091C53.3992 44.0091 54.0421 44.7989 54.025 46.3786C53.9739 47.3582 53.7568 48.1922 53.3737 48.8805Z" fill="#EF782D"/>
<path fill-rule="evenodd" clip-rule="evenodd" d="M61.8881 42.4338H58.0695L56.09 51.8723H60.0235C60.8153 51.8723 61.4752 51.8061 62.003 51.6737C62.5309 51.5413 63.0588 51.2545 63.5867 50.8132C64.3189 50.2043 64.8297 49.4807 65.1192 48.6423C65.4172 47.7951 65.5662 47.0096 65.5662 46.286C65.5662 45.5799 65.4555 44.9357 65.2342 44.3533C65.0128 43.762 64.6637 43.3119 64.1869 43.003C63.642 42.6235 62.8757 42.4338 61.8881 42.4338ZM58.6442 50.0719L59.8319 44.2606H61.3389C62.582 44.2606 63.2163 44.8916 63.2419 46.1536C63.2674 46.6743 63.1865 47.2258 62.9992 47.8083C62.8204 48.3819 62.5522 48.8541 62.1946 49.2247C61.6582 49.7895 60.926 50.0719 59.998 50.0719H58.6442Z" fill="#EF782D"/>
<path d="M25.5496 32.7163C26.5318 31.1939 34.0194 19.9815 51.6264 28.9454C51.6684 28.9666 51.7043 28.908 51.6649 28.882C48.8595 27.0142 34.0299 17.5197 23.2611 32.445C23.1573 32.5891 23.2614 32.7982 23.4352 32.7982L25.2516 32.8801C25.372 32.8801 25.4825 32.8203 25.5496 32.7163Z" fill="#EF782D"/>
<path d="M39.5715 44.0248C39.7061 44.6927 39.422 45.4031 38.8207 45.7631C38.0711 46.2115 37.1127 45.9453 36.6801 45.1687C36.2474 44.3918 36.5042 43.3988 37.2536 42.9501C37.646 42.7153 38.0956 42.6764 38.4971 42.8041L51.2706 29.9835C51.284 29.9699 51.3044 29.9899 51.2919 30.0047L39.5715 44.0248Z" fill="#EF782D"/>
</svg>
