<svg width="338" height="99" viewBox="0 0 338 99" fill="none" xmlns="http://www.w3.org/2000/svg">
<g opacity="0.3">
<g filter="url(#filter0_bd_501_24)">
<path d="M35 83H303C303 88.5228 298.523 93 293 93H45C39.4772 93 35 88.5228 35 83Z" fill="#4B4B4B" fill-opacity="0.5" shape-rendering="crispEdges"/>
</g>
<g filter="url(#filter1_bd_501_24)">
<path d="M23 73H316C316 78.5228 311.523 83 306 83H33C27.4771 83 23 78.5228 23 73Z" fill="#4B4B4B" fill-opacity="0.5" shape-rendering="crispEdges"/>
</g>
<g filter="url(#filter2_bd_501_24)">
<rect x="4" y="2" width="330" height="71.0236" rx="17.3228" fill="#4B4B4B" fill-opacity="0.5" shape-rendering="crispEdges"/>
<path d="M25.7931 16.7241C20.4541 16.7241 16.126 21.0522 16.126 26.3912V49.498C16.126 54.837 20.4541 59.1651 25.7931 59.1651H48.8998C54.2388 59.1651 58.5669 54.837 58.5669 49.498V26.3912C58.5669 21.0522 54.2388 16.7241 48.8998 16.7241H25.7931Z" fill="#242424"/>
<path fill-rule="evenodd" clip-rule="evenodd" d="M38.2579 41.172L39.1815 36.6514H38.0079L37.6242 38.5853C37.4838 38.393 37.3007 38.2552 37.075 38.172C36.8493 38.0889 36.6286 38.0473 36.413 38.0473C36.0518 38.0473 35.7309 38.1331 35.45 38.3046C35.1691 38.471 34.9309 38.7101 34.7353 39.022C34.5999 39.2196 34.4845 39.4535 34.3892 39.7238C34.2939 39.9942 34.2463 40.3035 34.2463 40.6518C34.2563 40.9221 34.2964 41.1613 34.3666 41.3692C34.4369 41.5772 34.5397 41.7565 34.6751 41.9073C34.8155 42.0581 34.976 42.1698 35.1566 42.2426C35.3371 42.3206 35.5428 42.3596 35.7735 42.3596C35.949 42.3596 36.1572 42.3232 36.3979 42.2504C36.5759 42.2015 36.742 42.1184 36.8963 42.0014C37.0722 41.5361 37.5091 41.2066 38.0204 41.2066C38.0843 41.2066 38.1471 41.2117 38.2084 41.2217L38.2579 41.172ZM37.406 39.7862C37.406 39.9318 37.391 40.0878 37.3609 40.2541C37.2004 41.0703 36.8217 41.4862 36.2249 41.5018C35.9942 41.5018 35.8111 41.4212 35.6757 41.2601C35.5403 41.0989 35.4726 40.8806 35.4726 40.605C35.4726 40.1995 35.5729 39.8278 35.7735 39.4899C35.9942 39.1052 36.2851 38.9129 36.6462 38.9129C36.897 38.9077 37.0875 38.983 37.218 39.139C37.3534 39.295 37.4161 39.5107 37.406 39.7862Z" fill="#EF782D"/>
<path d="M21.3223 37.7276H22.9322L22.0219 42.2114H23.2858L24.2037 37.7276H25.8212L26.0544 36.6514H21.548L21.3223 37.7276Z" fill="#EF782D"/>
<path fill-rule="evenodd" clip-rule="evenodd" d="M24.4381 39.4899H25.6493C25.7496 39.0584 26.0305 38.8427 26.4919 38.8427C26.838 38.8427 27.016 38.9674 27.026 39.217C27.026 39.3729 26.9959 39.4951 26.9358 39.5835C26.8956 39.6563 26.8204 39.7135 26.7101 39.755C26.6047 39.7914 26.4718 39.8174 26.3113 39.833C26.1508 39.8486 26.0355 39.859 25.9653 39.8642C25.2832 39.9422 24.7967 40.0878 24.5058 40.3009C24.1446 40.54 23.9641 40.891 23.9641 41.3536C23.9892 42.0087 24.4029 42.3362 25.2054 42.3362C25.5164 42.3258 25.8048 42.2634 26.0706 42.149C26.2863 42.0399 26.4392 41.9333 26.5295 41.8293H26.5596L26.5897 42.2114H27.8009L27.8085 42.1802C27.6831 42.1126 27.6404 41.9931 27.6806 41.8215C27.6806 41.65 27.7031 41.5044 27.7483 41.3848L28.1395 39.5367C28.1846 39.2976 28.2022 39.1026 28.1921 38.9518C28.1821 38.7959 28.1144 38.6451 27.989 38.4996C27.7332 38.2188 27.2843 38.0785 26.6424 38.0785C26.0355 38.0629 25.5415 38.1772 25.1603 38.4216C24.9396 38.5723 24.7716 38.7491 24.6562 38.9518C24.5409 39.1546 24.4681 39.3339 24.4381 39.4899ZM26.1458 40.4881C26.4718 40.4309 26.7 40.3633 26.8304 40.2853L26.7853 40.5348C26.7251 40.8156 26.6198 41.0469 26.4693 41.2289C26.2336 41.4628 25.9828 41.5902 25.717 41.611C25.391 41.611 25.2205 41.4732 25.2054 41.1977C25.2054 40.9689 25.3107 40.7922 25.5214 40.6674C25.6067 40.6154 25.8148 40.5556 26.1458 40.4881Z" fill="#EF782D"/>
<path d="M30.4385 36.6514H29.2724L28.1288 42.2114H29.2949L30.4385 36.6514Z" fill="#EF782D"/>
<path fill-rule="evenodd" clip-rule="evenodd" d="M30.3749 39.4899H31.5862C31.6865 39.0584 31.9673 38.8427 32.4288 38.8427C32.7748 38.8427 32.9529 38.9674 32.9629 39.217C32.9629 39.3729 32.9328 39.4951 32.8726 39.5835C32.8325 39.6563 32.7573 39.7135 32.6469 39.755C32.5416 39.7914 32.4087 39.8174 32.2482 39.833C32.0877 39.8486 31.9724 39.859 31.9021 39.8642C31.22 39.9422 30.7335 40.0878 30.4426 40.3009C30.0815 40.54 29.901 40.891 29.901 41.3536C29.926 42.0087 30.3398 42.3362 31.1423 42.3362C31.4533 42.3258 31.7416 42.2634 32.0075 42.149C32.2231 42.0399 32.3761 41.9333 32.4664 41.8293H32.4965L32.5266 42.2114H33.7378L33.7453 42.1802C33.6199 42.1126 33.5773 41.9931 33.6174 41.8215C33.6174 41.65 33.64 41.5044 33.6851 41.3848L34.0764 39.5367C34.1215 39.2976 34.1391 39.1026 34.129 38.9518C34.119 38.7959 34.0513 38.6451 33.9259 38.4996C33.6701 38.2188 33.2212 38.0785 32.5792 38.0785C31.9724 38.0629 31.4783 38.1772 31.0972 38.4216C30.8765 38.5723 30.7085 38.7491 30.5931 38.9518C30.4777 39.1546 30.405 39.3339 30.3749 39.4899ZM32.0827 40.4881C32.4087 40.4309 32.6369 40.3633 32.7673 40.2853L32.7222 40.5348C32.662 40.8156 32.5567 41.0469 32.4062 41.2289C32.1705 41.4628 31.9197 41.5902 31.6539 41.611C31.3279 41.611 31.1573 41.4732 31.1423 41.1977C31.1423 40.9689 31.2476 40.7922 31.4583 40.6674C31.5435 40.6154 31.7517 40.5556 32.0827 40.4881Z" fill="#EF782D"/>
<path fill-rule="evenodd" clip-rule="evenodd" d="M38.4879 43.6109L37.8179 46.8902H39.0743L39.5031 44.8394H40.4962C40.9827 44.8394 41.231 45.0083 41.241 45.3462C41.241 45.4866 41.2134 45.6529 41.1582 45.8453C41.1031 46.1208 41.073 46.3262 41.068 46.4613C41.0629 46.5965 41.088 46.7395 41.1432 46.8902H42.4297C42.3745 46.7395 42.3494 46.6017 42.3544 46.4769C42.3594 46.3522 42.3895 46.126 42.4447 45.7985C42.5199 45.4918 42.5475 45.263 42.5275 45.1123C42.5275 44.7484 42.3469 44.5014 41.9858 44.3715L41.9933 44.3637C42.2641 44.2805 42.4999 44.1401 42.7005 43.9426C43.0315 43.6463 43.197 43.2408 43.197 42.7261C43.2171 42.2114 43.024 41.8189 42.6177 41.5486C42.372 41.403 42.0184 41.3302 41.557 41.3302H40.0748L39.2226 42.3479C39.2256 42.384 39.2271 42.4206 39.2271 42.4574C39.2271 42.9764 38.9222 43.4216 38.4879 43.6109ZM39.7213 43.8256L40.0147 42.4064H41.068C41.6096 42.4064 41.8754 42.6195 41.8654 43.0458C41.8454 43.2538 41.7626 43.4357 41.6171 43.5917C41.4717 43.7476 41.2259 43.8256 40.8799 43.8256H39.7213Z" fill="#EF782D"/>
<path fill-rule="evenodd" clip-rule="evenodd" d="M43.7055 46.3288C44.0415 46.8071 44.6735 47.0436 45.6013 47.0384C45.9173 47.0384 46.2057 47.0072 46.4665 46.9448C46.7323 46.8824 46.9831 46.7811 47.2188 46.6407C47.4596 46.4951 47.6828 46.3002 47.8884 46.0558C48.2044 45.6711 48.4351 45.2527 48.5805 44.8004C48.731 44.3481 48.7987 43.9036 48.7837 43.4669C48.7837 43.129 48.736 42.8197 48.6407 42.5389C48.5454 42.2582 48.4025 42.0165 48.2119 41.8137C48.0213 41.611 47.7781 41.455 47.4821 41.3458C47.1862 41.2367 46.8427 41.1821 46.4515 41.1821C45.4785 41.1821 44.7011 41.5148 44.1193 42.1802C43.8234 42.5337 43.5926 42.9418 43.4271 43.4045C43.2666 43.862 43.1864 44.3117 43.1864 44.7536C43.1964 45.3202 43.3695 45.8453 43.7055 46.3288ZM47.0533 45.1279C46.7524 45.6841 46.301 45.9623 45.6991 45.9623C45.4333 45.9779 45.1725 45.8973 44.9167 45.7205C44.666 45.5438 44.5481 45.1591 44.5631 44.5664C44.5932 44.0154 44.7236 43.5267 44.9543 43.1004C45.2553 42.5389 45.7042 42.2582 46.301 42.2582C47.0684 42.2582 47.447 42.7235 47.437 43.6541C47.4069 44.2311 47.279 44.7224 47.0533 45.1279Z" fill="#EF782D"/>
<path fill-rule="evenodd" clip-rule="evenodd" d="M52.069 41.3302H49.8195L48.6534 46.8902H50.9706C51.437 46.8902 51.8257 46.8512 52.1367 46.7733C52.4476 46.6953 52.7586 46.5263 53.0696 46.2664C53.5009 45.9077 53.8018 45.4814 53.9723 44.9875C54.1479 44.4884 54.2357 44.0258 54.2357 43.5995C54.2357 43.1836 54.1705 42.8041 54.04 42.461C53.9096 42.1126 53.704 41.8475 53.4231 41.6656C53.1022 41.442 52.6508 41.3302 52.069 41.3302ZM50.1581 45.8297L50.8577 42.4064H51.7455C52.4777 42.4064 52.8514 42.7781 52.8664 43.5215C52.8815 43.8282 52.8338 44.1531 52.7235 44.4962C52.6182 44.8342 52.4602 45.1123 52.2495 45.3306C51.9335 45.6633 51.5022 45.8297 50.9555 45.8297H50.1581Z" fill="#EF782D"/>
<path d="M30.6628 35.6059C31.2414 34.7091 35.6522 28.1042 46.024 33.3846C46.0488 33.397 46.0699 33.3625 46.0467 33.3472C44.3941 32.2469 35.6583 26.6539 29.3147 35.4461C29.2536 35.531 29.3149 35.6542 29.4172 35.6542L30.4873 35.7024C30.5582 35.7024 30.6233 35.6672 30.6628 35.6059Z" fill="#EF782D"/>
<path d="M38.9228 42.2675C39.0021 42.6609 38.8347 43.0794 38.4805 43.2915C38.0389 43.5556 37.4744 43.3988 37.2195 42.9413C36.9646 42.4837 37.1159 41.8987 37.5573 41.6344C37.7885 41.4961 38.0534 41.4732 38.2899 41.5484L45.8144 33.9961C45.8223 33.9881 45.8344 33.9998 45.827 34.0085L38.9228 42.2675Z" fill="#EF782D"/>
<path d="M77.7867 31.8719C77.0897 31.8719 76.5253 31.7393 76.0934 31.4743C75.6713 31.2093 75.3719 30.8706 75.1952 30.4583H75.0774L74.8418 31.7246H73.1632V23.6556H75.3719V27.5134C75.3719 28.073 75.4357 28.5343 75.5633 28.8975C75.6909 29.2509 75.8774 29.5159 76.1228 29.6926C76.3682 29.8693 76.6627 29.9577 77.0063 29.9577C77.4186 29.9577 77.7327 29.835 77.9487 29.5896C78.1646 29.3442 78.2726 28.9515 78.2726 28.4116V23.6556H80.4813V28.8975C80.4813 29.5356 80.3782 30.0755 80.172 30.5172C79.9757 30.9589 79.6763 31.2976 79.2739 31.5332C78.8714 31.759 78.3757 31.8719 77.7867 31.8719ZM73.4313 22.5366V21.6089L74.9184 20.9905H80.175V22.5366H73.4313ZM78.2903 21.6384V19.9745H80.175V21.6384H78.2903ZM84.6112 31.916C84.0321 31.916 83.448 31.8522 82.859 31.7246C82.2799 31.597 81.7645 31.4154 81.313 31.1798L81.9314 29.4276C82.1277 29.5356 82.3633 29.6485 82.6382 29.7663C82.913 29.8841 83.2124 29.9822 83.5363 30.0608C83.8603 30.1393 84.1891 30.1785 84.5229 30.1785C84.9155 30.1785 85.21 30.1246 85.4063 30.0166C85.6125 29.8988 85.7156 29.7221 85.7156 29.4865C85.7156 29.3098 85.6468 29.1675 85.5094 29.0595C85.3818 28.9417 85.1904 28.8337 84.9352 28.7356C84.6799 28.6276 84.3756 28.5147 84.0222 28.3969C83.502 28.2104 83.0553 28.0092 82.6823 27.7932C82.3093 27.5772 82.0197 27.3122 81.8136 26.9981C81.6173 26.684 81.5191 26.2913 81.5191 25.8201C81.5191 25.2802 81.6565 24.8385 81.9314 24.4949C82.2062 24.1514 82.594 23.8961 83.0946 23.7293C83.5952 23.5526 84.1793 23.4642 84.8468 23.4642C85.3965 23.4642 85.8922 23.5084 86.334 23.5967C86.7757 23.6851 87.1193 23.798 87.3647 23.9354V25.6729C87.1978 25.5943 86.9769 25.5158 86.7021 25.4373C86.4371 25.3588 86.1475 25.295 85.8334 25.2459C85.529 25.187 85.2346 25.1575 84.9499 25.1575C84.5474 25.1575 84.2431 25.2115 84.037 25.3195C83.8308 25.4275 83.7278 25.5796 83.7278 25.7759C83.7278 25.933 83.7965 26.0655 83.9339 26.1735C84.0811 26.2815 84.2922 26.3846 84.5671 26.4827C84.8419 26.5711 85.1708 26.684 85.5536 26.8214C86.064 26.9981 86.496 27.1944 86.8493 27.4104C87.2027 27.6263 87.4678 27.8914 87.6445 28.2055C87.831 28.5196 87.9242 28.9073 87.9242 29.3687C87.9242 29.8104 87.8211 30.2276 87.615 30.6203C87.4187 31.0031 87.08 31.3172 86.599 31.5626C86.118 31.7982 85.4554 31.916 84.6112 31.916ZM91.1132 31.8719C90.6911 31.8719 90.323 31.8031 90.0089 31.6657C89.7046 31.5283 89.4641 31.3221 89.2874 31.0473C89.1205 30.7626 89.0371 30.4092 89.0371 29.9871V29.0889C89.0371 28.5098 89.1647 28.073 89.4199 27.7785C89.6751 27.484 90.0285 27.268 90.4801 27.1306L90.4948 27.0717L88.8898 26.4974V26.1146C88.8898 25.6336 89.0322 25.1919 89.3168 24.7894C89.6015 24.3869 90.0187 24.0679 90.5684 23.8323C91.1279 23.5869 91.8053 23.4642 92.6004 23.4642C93.3464 23.4642 93.9894 23.582 94.5293 23.8176C95.079 24.0434 95.5011 24.3869 95.7956 24.8483C96.0999 25.2999 96.252 25.8741 96.252 26.5711V31.7246H94.0434V26.7036C94.0434 26.2128 93.9108 25.8447 93.6458 25.5993C93.3906 25.3538 93.0225 25.2311 92.5415 25.2311C92.0899 25.2311 91.7513 25.3293 91.5255 25.5256C91.2997 25.7121 91.177 25.9428 91.1574 26.2177L92.4384 26.8067L92.2912 27.749C91.928 27.7588 91.6531 27.8374 91.4666 27.9846C91.2801 28.122 91.1868 28.392 91.1868 28.7945V29.7515C91.1868 29.9675 91.231 30.1246 91.3193 30.2227C91.4175 30.3111 91.5697 30.3552 91.7758 30.3552C91.8641 30.3552 91.9525 30.3503 92.0408 30.3405C92.139 30.3209 92.2224 30.2963 92.2912 30.2669L92.4973 31.5774C92.3108 31.6755 92.0997 31.7492 91.8641 31.7982C91.6286 31.8473 91.3782 31.8719 91.1132 31.8719ZM102.716 31.8719C102.019 31.8719 101.455 31.7393 101.023 31.4743C100.601 31.2093 100.301 30.8706 100.125 30.4583H100.007L99.7712 31.7246H98.0926V23.6556H100.301V27.5134C100.301 28.073 100.365 28.5343 100.493 28.8975C100.62 29.2509 100.807 29.5159 101.052 29.6926C101.298 29.8693 101.592 29.9577 101.936 29.9577C102.348 29.9577 102.662 29.835 102.878 29.5896C103.094 29.3442 103.202 28.9515 103.202 28.4116V23.6556H105.411V28.8975C105.411 29.5356 105.308 30.0755 105.101 30.5172C104.905 30.9589 104.606 31.2976 104.203 31.5332C103.801 31.759 103.305 31.8719 102.716 31.8719ZM109.261 31.7246V26.3944C109.261 25.9821 109.163 25.6827 108.966 25.4962C108.78 25.3097 108.471 25.2164 108.039 25.2164C107.715 25.2164 107.415 25.2606 107.14 25.3489C106.875 25.4373 106.625 25.5453 106.39 25.6729V23.9059C106.606 23.8078 106.91 23.7096 107.302 23.6115C107.695 23.5133 108.156 23.4642 108.687 23.4642C109.226 23.4642 109.703 23.5427 110.115 23.6998C110.537 23.8569 110.866 24.1219 111.101 24.4949C111.347 24.8581 111.469 25.3588 111.469 25.9968V31.7246H109.261ZM115.439 31.8719C114.997 31.8719 114.624 31.8031 114.32 31.6657C114.015 31.5283 113.785 31.3221 113.628 31.0473C113.471 30.7626 113.392 30.4092 113.392 29.9871V24.5391C113.392 24.2839 113.407 24.0728 113.436 23.9059C113.475 23.7391 113.544 23.582 113.642 23.4348C113.741 23.2777 113.883 23.0912 114.069 22.8752C114.266 22.6495 114.428 22.4531 114.555 22.2863C114.683 22.1194 114.747 21.928 114.747 21.712C114.747 21.4862 114.663 21.3095 114.496 21.1819C114.339 21.0445 114.089 20.9758 113.745 20.9758C113.48 20.9758 113.245 21.0101 113.039 21.0789C112.833 21.1476 112.646 21.2359 112.479 21.3439V19.7095C112.617 19.631 112.862 19.5426 113.215 19.4445C113.579 19.3365 114.015 19.2825 114.526 19.2825C115.301 19.2825 115.915 19.4445 116.366 19.7684C116.818 20.0923 117.044 20.5782 117.044 21.2261C117.044 21.6188 116.965 21.9623 116.808 22.2568C116.661 22.5513 116.504 22.8114 116.337 23.0372C116.18 23.2532 116.042 23.4348 115.925 23.582C115.817 23.7194 115.733 23.8618 115.674 24.009C115.625 24.1563 115.601 24.3526 115.601 24.598V29.7221C115.601 29.9086 115.64 30.046 115.718 30.1344C115.807 30.2227 115.934 30.2669 116.101 30.2669C116.18 30.2669 116.263 30.2571 116.352 30.2374C116.45 30.2178 116.538 30.1933 116.617 30.1638L116.823 31.5774C116.636 31.6755 116.425 31.7492 116.19 31.7982C115.954 31.8473 115.704 31.8719 115.439 31.8719ZM117.926 31.7246V23.6556H120.105V26.6741H120.164L122.667 23.6556H125.096V23.7293L120.105 29.2656V31.7246H117.926ZM122.858 31.7246V29.0595C122.858 28.5392 122.706 28.1662 122.402 27.9404C122.107 27.7048 121.675 27.5871 121.106 27.5871L122.402 26.0557C122.991 26.0557 123.482 26.1735 123.874 26.4091C124.267 26.6447 124.561 26.9637 124.758 27.3662C124.964 27.7588 125.067 28.2104 125.067 28.7208V31.7246H122.858ZM131.355 31.8719C130.658 31.8719 130.094 31.7393 129.662 31.4743C129.24 31.2093 128.94 30.8706 128.764 30.4583H128.646L128.41 31.7246H126.732V23.6556H128.94V27.5134C128.94 28.073 129.004 28.5343 129.132 28.8975C129.259 29.2509 129.446 29.5159 129.691 29.6926C129.937 29.8693 130.231 29.9577 130.575 29.9577C130.987 29.9577 131.301 29.835 131.517 29.5896C131.733 29.3442 131.841 28.9515 131.841 28.4116V23.6556H134.05V28.8975C134.05 29.5356 133.947 30.0755 133.741 30.5172C133.544 30.9589 133.245 31.2976 132.842 31.5332C132.44 31.759 131.944 31.8719 131.355 31.8719ZM131.652 22.5366V19.1941H133.684V22.5366H131.652Z" fill="white"/>
<path d="M75.6955 54.2441V45.3074H75.5804L72.9418 47.2198V45.8538L75.7027 43.8695H76.9896V54.2441H75.6955ZM80.0657 54.2441L84.7246 45.1277V45.027H79.1742V43.8695H86.0403V45.0701L81.4245 54.2441H80.0657ZM95.7945 54.4886C92.9761 54.4886 91.2147 52.4036 91.2147 49.0676V49.0532C91.2147 45.71 92.9689 43.625 95.7873 43.625C97.9729 43.625 99.6769 44.9982 99.986 46.9898L99.9789 47.0042H98.6775L98.6703 46.9898C98.3252 45.6597 97.218 44.8185 95.7873 44.8185C93.7957 44.8185 92.5447 46.4577 92.5447 49.0532V49.0676C92.5447 51.6631 93.7957 53.2951 95.7945 53.2951C97.2396 53.2951 98.3396 52.5546 98.6631 51.3611L98.6775 51.3467H99.986V51.3611C99.6409 53.2592 98.0017 54.4886 95.7945 54.4886ZM101.804 54.2441V43.8695H103.098V54.2441H101.804ZM108.389 54.2441L104.564 43.8695H105.923L108.971 52.569H109.086L112.134 43.8695H113.493L109.668 54.2441H108.389ZM114.959 54.2441V43.8695H116.253V54.2441H114.959ZM122.723 54.4886C119.904 54.4886 118.143 52.4036 118.143 49.0676V49.0532C118.143 45.71 119.897 43.625 122.715 43.625C124.901 43.625 126.605 44.9982 126.914 46.9898L126.907 47.0042H125.606L125.598 46.9898C125.253 45.6597 124.146 44.8185 122.715 44.8185C120.724 44.8185 119.473 46.4577 119.473 49.0532V49.0676C119.473 51.6631 120.724 53.2951 122.723 53.2951C124.168 53.2951 125.268 52.5546 125.591 51.3611L125.606 51.3467H126.914V51.3611C126.569 53.2592 124.93 54.4886 122.723 54.4886ZM135.762 54.4886C133.828 54.4886 132.448 53.2448 132.297 51.584L132.29 51.5049H133.534L133.541 51.5624C133.663 52.5546 134.562 53.3454 135.777 53.3454C137.157 53.3454 138.106 52.3605 138.106 50.9585V50.9441C138.106 49.5637 137.143 48.5787 135.798 48.5787C135.108 48.5787 134.519 48.7872 134.073 49.2114C133.893 49.3839 133.728 49.5852 133.598 49.8297H132.477L133.023 43.8695H138.796V45.027H134.044L133.692 48.5356H133.807C134.267 47.8382 135.079 47.4571 136.021 47.4571C137.97 47.4571 139.372 48.9166 139.372 50.9225V50.9369C139.372 53.0291 137.869 54.4886 135.762 54.4886ZM141.535 54.2441L146.193 45.1277V45.027H140.643V43.8695H147.509V45.0701L142.893 54.2441H141.535ZM152.383 43.625C154.281 43.625 156.287 44.9623 156.287 48.8663V48.8807C156.287 52.418 154.813 54.4886 152.296 54.4886C150.557 54.4886 149.262 53.4677 148.91 51.9363L148.889 51.8428H150.19L150.219 51.9219C150.535 52.7918 151.261 53.3311 152.311 53.3311C154.194 53.3311 154.964 51.4905 155.043 49.3264C155.05 49.2473 155.05 49.1611 155.05 49.082H154.913C154.532 49.9303 153.555 50.6853 152.153 50.6853C150.204 50.6853 148.752 49.2042 148.752 47.2127V47.1983C148.752 45.1277 150.29 43.625 152.383 43.625ZM152.375 49.5565C153.72 49.5565 154.741 48.5715 154.741 47.2198V47.2127C154.741 45.8466 153.713 44.7682 152.397 44.7682C151.096 44.7682 150.053 45.8251 150.053 47.1695V47.1839C150.053 48.5643 151.031 49.5565 152.375 49.5565ZM158.09 54.2441V43.4165H159.341V49.88H159.456L162.807 46.4937H164.324L160.944 49.7506L164.546 54.2441H162.972L160.067 50.599L159.341 51.3036V54.2441H158.09Z" fill="white"/>
<path d="M294.25 26.3938V20.0111H295.28V20.9703H295.375C295.695 20.2953 296.293 19.8986 297.234 19.8986C298.667 19.8986 299.467 20.7453 299.467 22.261V26.3938H298.436V22.5097C298.436 21.361 297.963 20.8104 296.944 20.8104C295.926 20.8104 295.28 21.4972 295.28 22.6163V26.3938H294.25ZM303.601 26.5063C301.783 26.5063 300.658 25.2511 300.658 23.2084V23.1965C300.658 21.1479 301.783 19.8986 303.601 19.8986C305.419 19.8986 306.544 21.1479 306.544 23.1965V23.2084C306.544 25.2511 305.419 26.5063 303.601 26.5063ZM303.601 25.5945C304.809 25.5945 305.49 24.7123 305.49 23.2084V23.1965C305.49 21.6867 304.809 20.8104 303.601 20.8104C302.393 20.8104 301.712 21.6867 301.712 23.1965V23.2084C301.712 24.7123 302.393 25.5945 303.601 25.5945ZM308.784 26.3938L306.996 20.0111H308.026L309.281 25.1149H309.376L310.803 20.0111H311.78L313.207 25.1149H313.301L314.557 20.0111H315.581L313.793 26.3938H312.757L311.33 21.4558H311.235L309.814 26.3938H308.784Z" fill="white" fill-opacity="0.5"/>
</g>
</g>
<defs>
<filter id="filter0_bd_501_24" x="15" y="63" width="308" height="50" filterUnits="userSpaceOnUse" color-interpolation-filters="sRGB">
<feFlood flood-opacity="0" result="BackgroundImageFix"/>
<feGaussianBlur in="BackgroundImageFix" stdDeviation="10"/>
<feComposite in2="SourceAlpha" operator="in" result="effect1_backgroundBlur_501_24"/>
<feColorMatrix in="SourceAlpha" type="matrix" values="0 0 0 0 0 0 0 0 0 0 0 0 0 0 0 0 0 0 127 0" result="hardAlpha"/>
<feOffset dy="2"/>
<feGaussianBlur stdDeviation="2"/>
<feComposite in2="hardAlpha" operator="out"/>
<feColorMatrix type="matrix" values="0 0 0 0 0 0 0 0 0 0 0 0 0 0 0 0 0 0 0.25 0"/>
<feBlend mode="normal" in2="effect1_backgroundBlur_501_24" result="effect2_dropShadow_501_24"/>
<feBlend mode="normal" in="SourceGraphic" in2="effect2_dropShadow_501_24" result="shape"/>
</filter>
<filter id="filter1_bd_501_24" x="3" y="53" width="333" height="50" filterUnits="userSpaceOnUse" color-interpolation-filters="sRGB">
<feFlood flood-opacity="0" result="BackgroundImageFix"/>
<feGaussianBlur in="BackgroundImageFix" stdDeviation="10"/>
<feComposite in2="SourceAlpha" operator="in" result="effect1_backgroundBlur_501_24"/>
<feColorMatrix in="SourceAlpha" type="matrix" values="0 0 0 0 0 0 0 0 0 0 0 0 0 0 0 0 0 0 127 0" result="hardAlpha"/>
<feOffset dy="2"/>
<feGaussianBlur stdDeviation="2"/>
<feComposite in2="hardAlpha" operator="out"/>
<feColorMatrix type="matrix" values="0 0 0 0 0 0 0 0 0 0 0 0 0 0 0 0 0 0 0.25 0"/>
<feBlend mode="normal" in2="effect1_backgroundBlur_501_24" result="effect2_dropShadow_501_24"/>
<feBlend mode="normal" in="SourceGraphic" in2="effect2_dropShadow_501_24" result="shape"/>
</filter>
<filter id="filter2_bd_501_24" x="-16" y="-18" width="370" height="111.024" filterUnits="userSpaceOnUse" color-interpolation-filters="sRGB">
<feFlood flood-opacity="0" result="BackgroundImageFix"/>
<feGaussianBlur in="BackgroundImageFix" stdDeviation="10"/>
<feComposite in2="SourceAlpha" operator="in" result="effect1_backgroundBlur_501_24"/>
<feColorMatrix in="SourceAlpha" type="matrix" values="0 0 0 0 0 0 0 0 0 0 0 0 0 0 0 0 0 0 127 0" result="hardAlpha"/>
<feOffset dy="2"/>
<feGaussianBlur stdDeviation="2"/>
<feComposite in2="hardAlpha" operator="out"/>
<feColorMatrix type="matrix" values="0 0 0 0 0 0 0 0 0 0 0 0 0 0 0 0 0 0 0.25 0"/>
<feBlend mode="normal" in2="effect1_backgroundBlur_501_24" result="effect2_dropShadow_501_24"/>
<feBlend mode="normal" in="SourceGraphic" in2="effect2_dropShadow_501_24" result="shape"/>
</filter>
</defs>
</svg>
