<svg width="48" height="48" viewBox="0 0 48 48" fill="none" xmlns="http://www.w3.org/2000/svg">
<path d="M29.728 22.5866L33.0528 19.469C35.0244 17.6205 36.1429 15.0393 36.1429 12.3368V7.84033C36.1436 6.78454 35.7108 5.81548 35.0177 5.12516C34.3273 4.43196 33.3584 3.9993 32.3025 4H15.6902C14.6344 3.9993 13.6647 4.43196 12.9744 5.12508C12.2813 5.81548 11.8486 6.78446 11.85 7.84025V12.3367C11.85 15.0391 12.9683 17.6204 14.94 19.4689L18.2642 22.5852C18.4472 22.7574 18.5516 22.997 18.5516 23.2486V24.7513C18.5516 25.0029 18.4472 25.2418 18.2649 25.4134L14.9401 28.531C12.9684 30.3789 11.8501 32.9608 11.8501 35.6632V40.1597C11.8487 41.2155 12.2815 42.1845 12.9744 42.8749C13.6649 43.568 14.6345 44.0007 15.6903 44H32.3025C33.3584 44.0007 34.3274 43.568 35.0178 42.8749C35.7108 42.1844 36.1436 41.2155 36.1429 40.1597V35.6634C36.1429 32.961 35.0245 30.379 33.0529 28.5312L29.7287 25.4142C29.5449 25.242 29.4414 25.0031 29.4414 24.7514V23.2487C29.4413 22.9971 29.5449 22.7576 29.728 22.5866ZM33.211 40.1598C33.2103 40.4155 33.1114 40.633 32.9445 40.8019C32.7756 40.9687 32.5582 41.0676 32.3025 41.0683H15.6902C15.4345 41.0676 15.2165 40.9687 15.0476 40.8019C14.8807 40.633 14.7825 40.4155 14.7818 40.1598V35.6634C14.7818 33.7718 15.5651 31.9637 16.9451 30.6704L20.2694 27.5527C21.0439 26.8274 21.4834 25.8127 21.4834 24.7514V23.2487C21.4834 22.1869 21.0439 21.1722 20.2688 20.4467L16.9451 17.3298C15.565 16.0365 14.7818 14.229 14.7818 12.3368V7.84033C14.7825 7.58462 14.8807 7.36728 15.0476 7.19767C15.2165 7.0315 15.4345 6.93251 15.6902 6.93189H32.3025C32.5582 6.93251 32.7756 7.03142 32.9445 7.19767C33.1114 7.36728 33.2103 7.58455 33.211 7.84033V12.3368C33.211 14.2289 32.4277 16.0365 31.0475 17.3297L27.7233 20.4466C26.9488 21.1721 26.5094 22.1868 26.5094 23.2487V24.7513C26.5094 25.8126 26.9488 26.8273 27.724 27.554L31.0475 30.6696C32.4277 31.9636 33.211 33.7718 33.211 35.6633V40.1598Z" fill="#B9B9B9"/>
<path d="M22.5324 33.6056L16.491 39.6471H31.5011L25.4596 33.6056C24.6515 32.7981 23.3414 32.7981 22.5324 33.6056Z" fill="#B9B9B9"/>
</svg>
