<svg width="57" height="29" viewBox="0 0 57 29" fill="none" xmlns="http://www.w3.org/2000/svg">
<path fill-rule="evenodd" clip-rule="evenodd" d="M29.4428 18.1652L31.0107 10.4912H29.0184L28.3671 13.7741C28.1287 13.4476 27.8179 13.2137 27.4348 13.0725C27.0516 12.9313 26.677 12.8607 26.3109 12.8607C25.6979 12.8607 25.153 13.0063 24.6762 13.2975C24.1994 13.58 23.795 13.9859 23.4629 14.5154C23.233 14.8508 23.0372 15.2479 22.8755 15.7068C22.7137 16.1657 22.6328 16.6908 22.6328 17.2821C22.6498 17.741 22.7179 18.147 22.8371 18.5C22.9563 18.853 23.1309 19.1574 23.3608 19.4134C23.5992 19.6693 23.8716 19.859 24.1781 19.9826C24.4846 20.115 24.8337 20.1811 25.2254 20.1811C25.5234 20.1811 25.8767 20.1194 26.2854 19.9958C26.5875 19.9127 26.8695 19.7718 27.1314 19.573C27.4299 18.7832 28.1717 18.2239 29.0396 18.2239C29.1482 18.2239 29.2548 18.2326 29.3588 18.2495L29.4428 18.1652ZM27.9967 15.8127C27.9967 16.0598 27.9712 16.3246 27.9201 16.607C27.6476 17.9925 27.0048 18.6985 25.9916 18.725C25.6 18.725 25.2892 18.5882 25.0593 18.3146C24.8294 18.0411 24.7145 17.6704 24.7145 17.2027C24.7145 16.5143 24.8848 15.8833 25.2254 15.3097C25.6 14.6566 26.0938 14.3301 26.7068 14.3301C27.1325 14.3213 27.4561 14.4492 27.6774 14.714C27.9073 14.9787 28.0137 15.345 27.9967 15.8127Z" fill="#EF782D"/>
<path d="M0.693359 12.318H3.4264L1.88108 19.9296H4.02665L5.58474 12.318H8.33055L8.72646 10.4912H1.0765L0.693359 12.318Z" fill="#EF782D"/>
<path fill-rule="evenodd" clip-rule="evenodd" d="M5.98263 15.3097H8.0388C8.20908 14.5772 8.68587 14.2109 9.46917 14.2109C10.0566 14.2109 10.3589 14.4228 10.3759 14.8464C10.3759 15.1111 10.3248 15.3185 10.2227 15.4685C10.1546 15.5921 10.0268 15.6892 9.83954 15.7598C9.66074 15.8215 9.43512 15.8657 9.16266 15.8921C8.89021 15.9186 8.69439 15.9363 8.57519 15.9451C7.41726 16.0775 6.59139 16.3246 6.09757 16.6864C5.48455 17.0924 5.17804 17.688 5.17804 18.4735C5.22061 19.5855 5.92303 20.1414 7.2853 20.1414C7.81317 20.1238 8.30273 20.0179 8.75398 19.8237C9.12009 19.6384 9.37978 19.4575 9.53303 19.281H9.58411L9.6352 19.9296H11.6914L11.7041 19.8767C11.4913 19.762 11.4189 19.559 11.487 19.2677C11.487 18.9765 11.5253 18.7294 11.602 18.5264L12.2661 15.3891C12.3427 14.9831 12.3725 14.6522 12.3555 14.3963C12.3384 14.1315 12.2235 13.8756 12.0106 13.6285C11.5764 13.1519 10.8144 12.9137 9.7246 12.9137C8.69439 12.8872 7.85574 13.0813 7.20867 13.4961C6.83405 13.752 6.54882 14.0521 6.353 14.3963C6.15717 14.7405 6.03372 15.0449 5.98263 15.3097ZM8.8817 17.0041C9.43512 16.907 9.8225 16.7923 10.0439 16.6599L9.96725 17.0835C9.86508 17.5601 9.68628 17.9528 9.43086 18.2617C9.03069 18.6588 8.60499 18.875 8.15374 18.9103C7.60032 18.9103 7.31084 18.6765 7.2853 18.2087C7.2853 17.8204 7.46409 17.5204 7.82169 17.3086C7.96643 17.2203 8.31976 17.1188 8.8817 17.0041Z" fill="#EF782D"/>
<path d="M16.1688 10.4912H14.1892L12.248 19.9296H14.2275L16.1688 10.4912Z" fill="#EF782D"/>
<path fill-rule="evenodd" clip-rule="evenodd" d="M16.0609 15.3097H18.1171C18.2874 14.5772 18.7642 14.2109 19.5475 14.2109C20.1349 14.2109 20.4372 14.4228 20.4542 14.8464C20.4542 15.1111 20.4031 15.3185 20.301 15.4685C20.2328 15.5921 20.1051 15.6892 19.9178 15.7598C19.739 15.8215 19.5134 15.8657 19.2409 15.8921C18.9685 15.9186 18.7727 15.9363 18.6535 15.9451C17.4955 16.0775 16.6697 16.3246 16.1759 16.6864C15.5628 17.0924 15.2563 17.688 15.2563 18.4735C15.2989 19.5855 16.0013 20.1414 17.3636 20.1414C17.8915 20.1238 18.381 20.0179 18.8323 19.8237C19.1984 19.6384 19.4581 19.4575 19.6113 19.281H19.6624L19.7135 19.9296H21.7696L21.7824 19.8767C21.5696 19.762 21.4972 19.559 21.5653 19.2677C21.5653 18.9765 21.6036 18.7294 21.6802 18.5264L22.3444 15.3891C22.421 14.9831 22.4508 14.6522 22.4338 14.3963C22.4167 14.1315 22.3018 13.8756 22.0889 13.6285C21.6547 13.1519 20.8927 12.9137 19.8029 12.9137C18.7727 12.8872 17.934 13.0813 17.2869 13.4961C16.9123 13.752 16.6271 14.0521 16.4313 14.3963C16.2355 14.7405 16.112 15.0449 16.0609 15.3097ZM18.96 17.0041C19.5134 16.907 19.9008 16.7923 20.1222 16.6599L20.0455 17.0835C19.9434 17.5601 19.7646 17.9528 19.5091 18.2617C19.109 18.6588 18.6833 18.875 18.232 18.9103C17.6786 18.9103 17.3891 18.6765 17.3636 18.2087C17.3636 17.8204 17.5424 17.5204 17.9 17.3086C18.0447 17.2203 18.398 17.1188 18.96 17.0041Z" fill="#EF782D"/>
<path fill-rule="evenodd" clip-rule="evenodd" d="M29.8333 22.3054L28.6959 27.8723H30.8287L31.5567 24.3907H33.2425C34.0684 24.3907 34.4898 24.6776 34.5068 25.2512C34.5068 25.4895 34.46 25.7719 34.3663 26.0984C34.2727 26.5661 34.2216 26.9147 34.2131 27.1442C34.2046 27.3736 34.2472 27.6163 34.3408 27.8723H36.5247C36.431 27.6163 36.3885 27.3825 36.397 27.1707C36.4055 26.9589 36.4566 26.575 36.5502 26.019C36.6779 25.4983 36.7248 25.11 36.6907 24.8541C36.6907 24.2363 36.3842 23.8171 35.7712 23.5965L35.784 23.5833C36.2437 23.4421 36.6439 23.2038 36.9844 22.8684C37.5464 22.3654 37.8273 21.677 37.8273 20.8033C37.8614 19.9296 37.5336 19.2633 36.844 18.8044C36.4268 18.5573 35.8265 18.4338 35.0432 18.4338H32.5271L31.0804 20.1614C31.0856 20.2227 31.0882 20.2847 31.0882 20.3473C31.0882 21.2283 30.5706 21.984 29.8333 22.3054ZM31.927 22.6699L32.4251 20.2606H34.2131C35.1326 20.2606 35.5839 20.6224 35.5668 21.3461C35.5328 21.6991 35.3923 22.008 35.1454 22.2727C34.8985 22.5375 34.4813 22.6699 33.8938 22.6699H31.927Z" fill="#EF782D"/>
<path fill-rule="evenodd" clip-rule="evenodd" d="M38.6905 26.9191C39.2609 27.7311 40.3337 28.1326 41.9088 28.1238C42.4452 28.1238 42.9348 28.0708 43.3775 27.9649C43.8288 27.859 44.2545 27.6869 44.6547 27.4487C45.0633 27.2016 45.4422 26.8706 45.7913 26.4558C46.3277 25.8028 46.7193 25.0924 46.9662 24.3246C47.2217 23.5568 47.3366 22.8022 47.3111 22.0609C47.3111 21.4873 47.2302 20.9622 47.0684 20.4856C46.9066 20.0091 46.664 19.5987 46.3405 19.2545C46.0169 18.9103 45.604 18.6456 45.1017 18.4603C44.5993 18.2749 44.0161 18.1823 43.352 18.1823C41.7003 18.1823 40.3806 18.7471 39.3929 19.8767C38.8906 20.4768 38.4989 21.1696 38.218 21.955C37.9455 22.7316 37.8093 23.495 37.8093 24.2451C37.8263 25.2071 38.1201 26.0984 38.6905 26.9191ZM44.3737 24.8805C43.8628 25.8248 43.0966 26.297 42.0749 26.297C41.6236 26.3235 41.1809 26.1867 40.7467 25.8866C40.321 25.5866 40.1209 24.9335 40.1464 23.9274C40.1975 22.992 40.4189 22.1624 40.8105 21.4387C41.3214 20.4856 42.0834 20.0091 43.0966 20.0091C44.3992 20.0091 45.042 20.7989 45.025 22.3786C44.9739 23.3582 44.7568 24.1922 44.3737 24.8805Z" fill="#EF782D"/>
<path fill-rule="evenodd" clip-rule="evenodd" d="M52.8881 18.4338H49.0695L47.09 27.8723H51.0235C51.8153 27.8723 52.4752 27.8061 53.003 27.6737C53.5309 27.5413 54.0588 27.2545 54.5867 26.8132C55.3189 26.2043 55.8297 25.4807 56.1192 24.6423C56.4172 23.7951 56.5662 23.0096 56.5662 22.286C56.5662 21.5799 56.4555 20.9357 56.2342 20.3533C56.0128 19.762 55.6637 19.3119 55.1869 19.003C54.642 18.6235 53.8757 18.4338 52.8881 18.4338ZM49.6442 26.0719L50.8319 20.2606H52.3389C53.582 20.2606 54.2163 20.8916 54.2419 22.1536C54.2674 22.6743 54.1865 23.2258 53.9992 23.8083C53.8204 24.3819 53.5522 24.8541 53.1946 25.2247C52.6582 25.7895 51.926 26.0719 50.998 26.0719H49.6442Z" fill="#EF782D"/>
<path d="M16.5496 8.71633C17.5318 7.19395 25.0194 -4.01846 42.6264 4.94542C42.6684 4.96657 42.7043 4.90795 42.6649 4.88196C39.8595 3.01419 25.0299 -6.48032 14.2611 8.44497C14.1573 8.58911 14.2614 8.79822 14.4352 8.79822L16.2516 8.88011C16.372 8.88011 16.4825 8.82028 16.5496 8.71633Z" fill="#EF782D"/>
<path d="M30.5715 20.0248C30.7061 20.6927 30.422 21.4031 29.8207 21.7631C29.0711 22.2115 28.1127 21.9453 27.6801 21.1687C27.2474 20.3918 27.5042 19.3988 28.2536 18.9501C28.646 18.7153 29.0956 18.6764 29.4971 18.8041L42.2706 5.98352C42.284 5.96992 42.3044 5.98986 42.2919 6.00467L30.5715 20.0248Z" fill="#EF782D"/>
</svg>
