<svg width="36" height="36" viewBox="0 0 36 36" fill="none" xmlns="http://www.w3.org/2000/svg">
<g clip-path="url(#clip0_548_314)">
<mask id="path-1-inside-1_548_314" fill="white">
<path d="M28.5 9.615L26.385 7.5L18 15.885L9.615 7.5L7.5 9.615L15.885 18L7.5 26.385L9.615 28.5L18 20.115L26.385 28.5L28.5 26.385L20.115 18L28.5 9.615Z"/>
</mask>
<path d="M28.5 9.615L26.385 7.5L18 15.885L9.615 7.5L7.5 9.615L15.885 18L7.5 26.385L9.615 28.5L18 20.115L26.385 28.5L28.5 26.385L20.115 18L28.5 9.615Z" fill="white" fill-opacity="0.5"/>
<path d="M28.5 9.615L30.6213 11.7363L32.7426 9.615L30.6213 7.49368L28.5 9.615ZM26.385 7.5L28.5063 5.37868L26.385 3.25736L24.2637 5.37868L26.385 7.5ZM18 15.885L15.8787 18.0063L18 20.1276L20.1213 18.0063L18 15.885ZM9.615 7.5L11.7363 5.37868L9.615 3.25736L7.49368 5.37868L9.615 7.5ZM7.5 9.615L5.37868 7.49368L3.25736 9.615L5.37868 11.7363L7.5 9.615ZM15.885 18L18.0063 20.1213L20.1276 18L18.0063 15.8787L15.885 18ZM7.5 26.385L5.37868 24.2637L3.25736 26.385L5.37868 28.5063L7.5 26.385ZM9.615 28.5L7.49368 30.6213L9.615 32.7426L11.7363 30.6213L9.615 28.5ZM18 20.115L20.1213 17.9937L18 15.8724L15.8787 17.9937L18 20.115ZM26.385 28.5L24.2637 30.6213L26.385 32.7426L28.5063 30.6213L26.385 28.5ZM28.5 26.385L30.6213 28.5063L32.7426 26.385L30.6213 24.2637L28.5 26.385ZM20.115 18L17.9937 15.8787L15.8724 18L17.9937 20.1213L20.115 18ZM30.6213 7.49368L28.5063 5.37868L24.2637 9.62132L26.3787 11.7363L30.6213 7.49368ZM24.2637 5.37868L15.8787 13.7637L20.1213 18.0063L28.5063 9.62132L24.2637 5.37868ZM20.1213 13.7637L11.7363 5.37868L7.49368 9.62132L15.8787 18.0063L20.1213 13.7637ZM7.49368 5.37868L5.37868 7.49368L9.62132 11.7363L11.7363 9.62132L7.49368 5.37868ZM5.37868 11.7363L13.7637 20.1213L18.0063 15.8787L9.62132 7.49368L5.37868 11.7363ZM13.7637 15.8787L5.37868 24.2637L9.62132 28.5063L18.0063 20.1213L13.7637 15.8787ZM5.37868 28.5063L7.49368 30.6213L11.7363 26.3787L9.62132 24.2637L5.37868 28.5063ZM11.7363 30.6213L20.1213 22.2363L15.8787 17.9937L7.49368 26.3787L11.7363 30.6213ZM15.8787 22.2363L24.2637 30.6213L28.5063 26.3787L20.1213 17.9937L15.8787 22.2363ZM28.5063 30.6213L30.6213 28.5063L26.3787 24.2637L24.2637 26.3787L28.5063 30.6213ZM30.6213 24.2637L22.2363 15.8787L17.9937 20.1213L26.3787 28.5063L30.6213 24.2637ZM22.2363 20.1213L30.6213 11.7363L26.3787 7.49368L17.9937 15.8787L22.2363 20.1213Z" fill="#B9B9B9" mask="url(#path-1-inside-1_548_314)"/>
</g>
<defs>
<clipPath id="clip0_548_314">
<rect width="36" height="36" fill="white"/>
</clipPath>
</defs>
</svg>
