<svg width="125" height="29" viewBox="0 0 125 29" fill="none" xmlns="http://www.w3.org/2000/svg">
<path d="M50.5792 27.9155L50.497 27.8369C50.1753 27.4965 49.9854 26.9679 49.9854 26.2834V26.4445V1.99297C49.9854 1.99076 49.9854 1.9891 49.9854 1.98733C49.9854 1.98943 49.9854 1.9912 49.9854 1.99341V2.15494C49.9854 1.41374 50.2068 0.855413 50.5778 0.520636L64.2761 14.2185L50.5792 27.9155ZM49.9854 1.986C49.9854 1.92508 49.987 1.86594 49.9901 1.80767C49.987 1.86549 49.9854 1.92508 49.9854 1.986ZM49.9901 1.80502C49.9901 1.80424 49.9901 1.80336 49.9904 1.80247C49.9901 1.80336 49.9901 1.80424 49.9901 1.80502ZM49.9904 1.79728C49.9904 1.79684 49.9904 1.79639 49.9904 1.79595C49.9904 1.79639 49.9904 1.79684 49.9904 1.79728Z" fill="#9F9F9F"/>
<path d="M68.8422 18.9482L68.9464 18.8891L74.356 15.8154C74.8718 15.5222 75.2155 15.1667 75.387 14.7906C75.2159 15.1667 74.8721 15.5226 74.356 15.8158L68.9464 18.8895L68.8422 18.9482ZM68.8436 18.7863L64.2769 14.2188L68.8431 9.6521L74.356 12.7841C75.0561 13.1819 75.4491 13.6945 75.5148 14.2184C75.5148 14.2188 75.5148 14.2197 75.5148 14.2205C75.4491 14.7431 75.0561 15.2562 74.356 15.6539L68.8436 18.7863Z" fill="#9F9F9F"/>
<path d="M51.556 28.437C51.1734 28.437 50.8395 28.3126 50.5791 28.0777L50.5796 28.0772C50.8399 28.3122 51.1743 28.437 51.5569 28.437C51.5901 28.437 51.6238 28.4361 51.658 28.4345C51.6234 28.4361 51.5892 28.437 51.556 28.437ZM51.5565 28.275C51.1738 28.2755 50.8399 28.1507 50.5796 27.9157V27.9154L64.2765 14.2184L68.8432 18.7859L52.7951 27.9041C52.3511 28.1559 51.9304 28.275 51.5565 28.275ZM50.5757 28.0747C50.5515 28.0527 50.5277 28.0294 50.5044 28.0052L50.5757 28.0747Z" fill="#606060"/>
<path d="M64.2763 14.2183L50.5781 0.520375C50.8385 0.285876 51.1719 0.161496 51.5542 0.161496C51.9291 0.161496 52.3501 0.281123 52.795 0.533311L68.8426 9.65156L64.2763 14.2183ZM68.9459 9.54841L52.795 0.37189C52.3501 0.119591 51.9291 -3.27219e-05 51.5542 -3.27219e-05C51.5524 -3.27219e-05 51.5512 -3.27219e-05 51.5494 -3.27219e-05C51.5516 -3.27219e-05 51.5533 -3.27219e-05 51.5559 -3.27219e-05C51.9299 -3.27219e-05 52.3505 0.11915 52.795 0.371449L68.9459 9.54841Z" fill="#B9B9B9"/>
</svg>
