<svg width="24" height="24" viewBox="0 0 24 24" fill="none" xmlns="http://www.w3.org/2000/svg">
<g clip-path="url(#clip0_701_490)">
<path d="M17.9574 14.3678C17.6535 14.1246 17.228 14.155 16.9544 14.4286C16.4377 14.9453 15.3131 16.0395 14.7964 16.5258C14.7356 16.5866 14.6444 16.6778 14.614 16.7386C14.4924 16.921 14.4316 17.1337 14.4924 17.3465C14.6444 17.9544 15.3435 18.1064 15.7994 17.6504C16.3161 17.1337 17.5015 16.0091 18.0182 15.4924C18.3222 15.158 18.2918 14.6413 17.9574 14.3678Z" fill="#B9B9B9"/>
<path d="M21.9392 8.31914C21.8784 8.01519 21.848 7.68084 21.7568 7.37689C21.0881 4.94528 18.8693 3.21276 16.5289 3.03038C15.1611 2.9392 13.9149 3.21276 12.7599 3.94224C12.4863 4.12461 12.2432 4.30698 11.9696 4.51975C11.8784 4.45896 11.8176 4.39817 11.7568 4.33738C10.2371 3.12157 8.50456 2.72643 6.58966 3.15197C4.67477 3.63829 3.30699 4.8237 2.51671 6.61701C1.84802 8.07598 1.84802 9.56534 2.39513 11.0851C2.69909 11.9666 3.2158 12.696 3.8845 13.3343C5.43465 14.8845 6.9848 16.4346 8.53495 17.9848C9.32523 18.7751 10.1155 19.5653 10.9058 20.3556C11.5137 20.9331 12.2736 20.9939 12.8815 20.4772C13.307 20.1124 13.7021 19.6869 14.0973 19.2614C14.4012 18.927 14.31 18.3799 13.9149 18.1368C13.6109 17.9544 13.2462 18.0152 12.9422 18.2887C12.6079 18.6231 12.3039 18.927 11.9696 19.2614C11.9088 19.231 11.8784 19.2006 11.848 19.1702C9.53799 16.8602 7.25836 14.5805 4.94833 12.2705C3.91489 11.2371 3.36778 9.7781 3.58054 8.31914C3.73252 7.25531 4.21884 6.37385 5.00912 5.64437C5.76899 4.94528 6.65045 4.58054 7.68389 4.48935C8.68693 4.45896 9.65957 4.67172 10.5106 5.27962C10.997 5.64437 11.3921 6.0699 11.848 6.46503C11.9088 6.52582 11.9696 6.55622 12.0304 6.61701C12.3039 6.34345 12.5471 6.10029 12.7599 5.85713C13.4894 5.12765 14.462 4.64133 15.5258 4.55014C16.8936 4.42856 18.1094 4.8237 19.1125 5.76595C19.9027 6.52583 20.3891 7.52886 20.4802 8.62309C20.6018 9.96047 20.1763 11.1459 19.234 12.1185C19.1733 12.1793 18.5957 12.7568 18.5046 12.848C18.2614 13.0912 18.2918 13.4863 18.5653 13.6991L18.8389 13.9422C19.0821 14.1246 19.6596 14.0334 20.1155 13.3951C20.1155 13.3951 21.5441 11.6018 21.8176 10.4468C21.9088 10.1428 21.9392 9.8085 22 9.47415C22 9.13981 22 8.80546 22 8.47111C21.9696 8.37993 21.9696 8.34953 21.9392 8.31914Z" fill="#B9B9B9"/>
</g>
<defs>
<clipPath id="clip0_701_490">
<rect width="20" height="17.8115" fill="white" transform="translate(2 3)"/>
</clipPath>
</defs>
</svg>
