<svg width="125" height="29" viewBox="0 0 125 29" fill="none" xmlns="http://www.w3.org/2000/svg">
<path d="M69.9708 15.1186C69.9847 14.0335 70.273 12.9696 70.8086 12.0259C71.3442 11.0821 72.1099 10.2892 73.0343 9.72088C72.447 8.88217 71.6723 8.19194 70.7716 7.70503C69.8709 7.21811 68.8691 6.94791 67.8458 6.91589C65.6628 6.68675 63.5464 8.22217 62.434 8.22217C61.3001 8.22217 59.5873 6.93864 57.743 6.97659C56.55 7.01513 55.3873 7.36204 54.3683 7.98352C53.3492 8.60499 52.5086 9.47984 51.9282 10.5228C49.414 14.8758 51.2893 21.2731 53.6977 24.7917C54.9027 26.5147 56.311 28.4393 58.1536 28.371C59.9568 28.2962 60.6303 27.2212 62.8069 27.2212C64.9632 27.2212 65.5951 28.371 67.4752 28.3276C69.4101 28.2962 70.6291 26.597 71.7918 24.8577C72.6576 23.6301 73.3238 22.2732 73.7658 20.8375C72.6416 20.362 71.6824 19.5662 71.0075 18.5492C70.3326 17.5322 69.9721 16.3391 69.9708 15.1186Z" fill="#B9B9B9"/>
<path d="M66.4197 4.60202C67.4747 3.33554 67.9945 1.70771 67.8686 0.064209C66.2568 0.233496 64.768 1.00382 63.6988 2.2217C63.176 2.81667 62.7756 3.50883 62.5205 4.25864C62.2653 5.00844 62.1605 5.80117 62.2119 6.59151C63.0181 6.59981 63.8157 6.42507 64.5445 6.08046C65.2734 5.73585 65.9146 5.23034 66.4197 4.60202Z" fill="#B9B9B9"/>
</svg>
