<svg width="32" height="32" viewBox="0 0 32 32" fill="none" xmlns="http://www.w3.org/2000/svg">
<mask id="mask0_550_846" style="mask-type:alpha" maskUnits="userSpaceOnUse" x="0" y="0" width="32" height="32">
<rect width="32" height="32" fill="#D9D9D9"/>
</mask>
<g mask="url(#mask0_550_846)">
<path d="M16 16.7305C16.7551 16.7305 17.3994 16.4772 17.9327 15.9705C18.466 15.4638 18.7326 14.8512 18.7326 14.1327C18.7326 13.4153 18.466 12.8032 17.9327 12.2965C17.3994 11.7898 16.7551 11.5365 16 11.5365C15.2448 11.5365 14.6006 11.7898 14.0673 12.2965C13.534 12.8032 13.2673 13.4153 13.2673 14.1327C13.2673 14.8512 13.534 15.4638 14.0673 15.9705C14.6006 16.4772 15.2448 16.7305 16 16.7305ZM16 25.787C18.6889 23.4441 20.6723 21.3277 21.9501 19.4377C23.2279 17.5478 23.8668 15.8641 23.8668 14.3866C23.8668 12.0852 23.1111 10.2221 21.5997 8.79731C20.0883 7.37251 18.2217 6.66011 16 6.66011C13.7782 6.66011 11.9117 7.37251 10.4003 8.79731C8.88887 10.2221 8.13317 12.0852 8.13317 14.3866C8.13317 15.8641 8.77207 17.5478 10.0499 19.4377C11.3277 21.3277 13.311 23.4441 16 25.787ZM16 29.3333C12.4226 26.3996 9.75069 23.7081 7.98438 21.2588C6.217 18.8094 5.33331 16.5187 5.33331 14.3866C5.33331 11.1985 6.39993 8.67013 8.53315 6.80147C10.6664 4.93382 13.1553 4 16 4C18.8446 4 21.3336 4.93382 23.4668 6.80147C25.6 8.67013 26.6666 11.1985 26.6666 14.3866C26.6666 16.5187 25.783 18.8094 24.0156 21.2588C22.2493 23.7081 19.5774 26.3996 16 29.3333Z" fill="#B9B9B9"/>
</g>
</svg>
