<svg width="6" height="8" viewBox="0 0 6 8" fill="none" xmlns="http://www.w3.org/2000/svg">
<path d="M1.02656 7.42954H4.37344C4.82695 7.42954 5.04844 7.20454 5.04844 6.71235V4.13188C5.04844 3.68892 4.86563 3.4604 4.48945 3.42173V2.53579C4.48945 1.2104 3.62109 0.570557 2.7 0.570557C1.77891 0.570557 0.910547 1.2104 0.910547 2.53579V3.43931C0.566016 3.49204 0.351562 3.71704 0.351562 4.13188V6.71235C0.351562 7.20454 0.573047 7.42954 1.02656 7.42954ZM1.47656 2.46196C1.47656 1.57954 2.04258 1.11196 2.7 1.11196C3.35742 1.11196 3.92344 1.57954 3.92344 2.46196V3.41821L1.47656 3.42173V2.46196Z" fill="white"/>
</svg>
