<svg width="25" height="24" viewBox="0 0 25 24" fill="none" xmlns="http://www.w3.org/2000/svg">
<path fill-rule="evenodd" clip-rule="evenodd" d="M9.1915 5.47826C9.1915 4.51777 9.96033 3.73913 10.9087 3.73913H19.0655C20.0139 3.73913 20.7828 4.51777 20.7828 5.47826V13.3043C20.7828 13.7846 21.1672 14.1739 21.6414 14.1739C22.1156 14.1739 22.5 13.7846 22.5 13.3043V5.47826C22.5 3.55727 20.9623 2 19.0655 2H10.9087C9.01193 2 7.47427 3.55727 7.47427 5.47826V7.90909C7.47427 8.38934 7.85869 8.77866 8.33288 8.77866C8.80708 8.77866 9.1915 8.38934 9.1915 7.90909V5.47826ZM22.5 15.913C22.5 15.4328 22.1156 15.0435 21.6414 15.0435C21.1672 15.0435 20.7828 15.4328 20.7828 15.913V17.2174C20.7828 17.6976 21.1672 18.087 21.6414 18.087C22.1156 18.087 22.5 17.6976 22.5 17.2174V15.913ZM8.33288 14.6087C8.80708 14.6087 9.1915 14.998 9.1915 15.4783V18.5217C9.1915 19.4822 9.96033 20.2609 10.9087 20.2609H14.7725C15.2467 20.2609 15.6311 20.6502 15.6311 21.1304C15.6311 21.6107 15.2467 22 14.7725 22H10.9087C9.01193 22 7.47427 20.4427 7.47427 18.5217V15.4783C7.47427 14.998 7.85869 14.6087 8.33288 14.6087ZM16.919 20.2609C16.4448 20.2609 16.0604 20.6502 16.0604 21.1305C16.0604 21.6107 16.4448 22 16.919 22H17.7776C18.2518 22 18.6362 21.6107 18.6362 21.1305C18.6362 20.6502 18.2518 20.2609 17.7776 20.2609H16.919ZM21.2121 18.5217C21.6863 18.5217 22.0707 18.911 22.0707 19.3913C22.0707 19.9551 21.9341 20.5686 21.6045 21.0693C21.2579 21.5958 20.6865 22 19.9242 22C19.45 22 19.0656 21.6107 19.0656 21.1304C19.0656 20.6502 19.45 20.2609 19.9242 20.2609C20.0204 20.2609 20.093 20.2303 20.1757 20.1046C20.2754 19.9532 20.3535 19.6971 20.3535 19.3913C20.3535 18.911 20.7379 18.5217 21.2121 18.5217ZM6.54865 8.64711C6.91015 9.02503 6.91015 9.63777 6.54865 10.0157L5.66041 10.9443H15.521C16.0323 10.9443 16.4467 11.3776 16.4467 11.9121C16.4467 12.4465 16.0323 12.8798 15.521 12.8798H5.66043L6.54865 13.8084C6.91015 14.1863 6.91015 14.7991 6.54865 15.177C6.18716 15.5549 5.60106 15.5549 5.23956 15.177L2.77112 12.5963C2.59753 12.4149 2.5 12.1687 2.5 11.912C2.5 11.6554 2.59753 11.4092 2.77112 11.2278L5.23956 8.64711C5.60106 8.26918 6.18716 8.26918 6.54865 8.64711Z" fill="#B9B9B9"/>
</svg>
