<svg width="60" height="84" viewBox="0 0 60 84" fill="none" xmlns="http://www.w3.org/2000/svg">
<path opacity="0.8" d="M0.968 74.4C3.016 70.1333 5.66133 66.2507 8.904 62.752C12.1467 59.168 16.4133 54.9867 21.704 50.208L24.392 47.776C28.232 44.2773 30.9627 41.7173 32.584 40.096C34.2053 38.3893 35.4 36.64 36.168 34.848C37.0213 33.056 37.448 30.9227 37.448 28.448C37.448 21.4507 32.9253 17.952 23.88 17.952C17.5653 17.952 10.8667 19.36 3.784 22.176V4.384C7.19733 3.104 11.1227 2.12266 15.56 1.43999C20.0827 0.671995 24.52 0.287994 28.872 0.287994C38.4293 0.287994 45.7253 2.72 50.76 7.584C55.88 12.448 58.44 19.2747 58.44 28.064C58.44 32.7573 57.3307 36.9387 55.112 40.608C52.9787 44.192 49.48 48.1173 44.616 52.384L42.44 54.304C38.7707 57.4613 35.912 60.0213 33.864 61.984C31.816 63.9467 30.0667 65.9947 28.616 68.128H59.208V84H0.968V74.4Z" fill="black" fill-opacity="0.35"/>
</svg>
