<svg width="61" height="86" viewBox="0 0 61 86" fill="none" xmlns="http://www.w3.org/2000/svg">
<path opacity="0.8" d="M26.696 85.28C22.7707 85.28 18.2053 84.8533 13 84C7.88 83.232 3.86933 82.2507 0.968 81.056V63.904C4.296 65.44 7.92267 66.592 11.848 67.36C15.8587 68.0427 19.7413 68.384 23.496 68.384C29.0427 68.384 33.096 67.6587 35.656 66.208C38.3013 64.672 39.624 62.0267 39.624 58.272C39.624 55.2853 38.5147 53.1093 36.296 51.744C34.0773 50.3787 30.792 49.696 26.44 49.696H13L14.408 35.232H25.544C29.896 35.232 33.0533 34.5493 35.016 33.184C36.9787 31.7333 37.96 29.4293 37.96 26.272C37.96 23.2 36.7653 20.9387 34.376 19.488C31.9867 17.952 28.232 17.184 23.112 17.184C19.4427 17.184 15.7307 17.6107 11.976 18.464C8.30667 19.232 5.064 20.256 2.248 21.536V4.64C5.32 3.36 9.07467 2.33599 13.512 1.56799C18.0347 0.714661 22.5147 0.287994 26.952 0.287994C33.7787 0.287994 39.5813 1.31199 44.36 3.35999C49.224 5.32266 52.8933 8.05333 55.368 11.552C57.8427 15.0507 59.08 19.104 59.08 23.712C59.08 27.808 58.2267 31.52 56.52 34.848C54.8133 38.176 52.296 40.6933 48.968 42.4C52.808 43.7653 55.7093 45.984 57.672 49.056C59.6347 52.0427 60.616 55.7547 60.616 60.192C60.616 68.5547 57.544 74.8267 51.4 79.008C45.3413 83.1893 37.1067 85.28 26.696 85.28Z" fill="black" fill-opacity="0.35"/>
</svg>
