<svg width="24" height="24" viewBox="0 0 24 24" fill="none" xmlns="http://www.w3.org/2000/svg">
<path d="M14.864 11.2933L16.5264 9.73452C17.5122 8.81026 18.0714 7.51963 18.0714 6.16842V3.92016C18.0718 3.39227 17.8554 2.90774 17.5089 2.56258C17.1637 2.21598 16.6792 1.99965 16.1513 2H7.84513C7.31723 1.99965 6.83239 2.21598 6.48719 2.56254C6.14067 2.90774 5.9243 3.39223 5.925 3.92013V6.16834C5.925 7.51955 6.48419 8.81022 7.47001 9.73445L9.13212 11.2926C9.22361 11.3787 9.27579 11.4985 9.27579 11.6243V12.3756C9.27579 12.5014 9.22361 12.6209 9.13247 12.7067L7.47005 14.2655C6.48422 15.1894 5.92504 16.4804 5.92504 17.8316V20.0798C5.92434 20.6078 6.14075 21.0923 6.48723 21.4375C6.83247 21.784 7.31727 22.0004 7.84517 22H16.1513C16.6792 22.0004 17.1637 21.784 17.5089 21.4375C17.8554 21.0922 18.0718 20.6078 18.0715 20.0798V17.8317C18.0715 16.4805 17.5123 15.1895 16.5265 14.2656L14.8644 12.7071C14.7725 12.621 14.7207 12.5015 14.7207 12.3757V11.6244C14.7207 11.4986 14.7725 11.3788 14.864 11.2933ZM16.6055 20.0799C16.6052 20.2078 16.5557 20.3165 16.4723 20.4009C16.3878 20.4844 16.2791 20.5338 16.1512 20.5341H7.84513C7.71728 20.5338 7.60825 20.4844 7.5238 20.4009C7.44036 20.3165 7.39126 20.2078 7.39091 20.0799V17.8317C7.39091 16.8859 7.78255 15.9819 8.47259 15.3352L10.1347 13.7764C10.522 13.4137 10.7417 12.9063 10.7417 12.3757V11.6244C10.7417 11.0934 10.522 10.5861 10.1344 10.2234L8.47259 8.66491C7.78251 8.01827 7.39091 7.11451 7.39091 6.16842V3.92016C7.39126 3.79231 7.44036 3.68364 7.5238 3.59883C7.60825 3.51575 7.71728 3.46626 7.84513 3.46594H16.1512C16.2791 3.46626 16.3878 3.51571 16.4723 3.59883C16.5557 3.68364 16.6052 3.79227 16.6055 3.92016V6.16838C16.6055 7.11447 16.2139 8.01823 15.5238 8.66487L13.8617 10.2233C13.4744 10.5861 13.2547 11.0934 13.2547 11.6243V12.3757C13.2547 12.9063 13.4744 13.4136 13.862 13.777L15.5238 15.3348C16.2139 15.9818 16.6055 16.8859 16.6055 17.8317V20.0799Z" fill="#B9B9B9"/>
<path d="M11.2662 16.8028L8.24553 19.8235H15.7505L12.7298 16.8028C12.3258 16.399 11.6707 16.399 11.2662 16.8028Z" fill="#B9B9B9"/>
</svg>
