<svg width="32" height="32" viewBox="0 0 32 32" fill="none" xmlns="http://www.w3.org/2000/svg">
<path fill-rule="evenodd" clip-rule="evenodd" d="M5.66406 11.9997C5.66406 9.97463 7.30568 8.33301 9.33073 8.33301C11.3558 8.33301 12.9974 9.97463 12.9974 11.9997C12.9974 14.0248 11.3558 15.6663 9.33073 15.6663C7.30569 15.6663 5.66406 14.0248 5.66406 11.9997ZM9.33073 10.333C8.41025 10.333 7.66406 11.0792 7.66406 11.9997C7.66406 12.9202 8.41024 13.6663 9.33073 13.6663C10.2512 13.6663 10.9974 12.9202 10.9974 11.9997C10.9974 11.0792 10.2512 10.333 9.33073 10.333Z" fill="#B9B9B9"/>
<path fill-rule="evenodd" clip-rule="evenodd" d="M13.5274 20.8066C11.8611 22.6726 10.1232 25.2249 8.28577 28.4907C8.01496 28.972 7.40523 29.1427 6.9239 28.8719C6.44257 28.6011 6.2719 27.9913 6.54271 27.51C8.41862 24.1758 10.2374 21.4881 12.0356 19.4745C13.8293 17.4659 15.6512 16.0729 17.5453 15.417C19.4757 14.7485 21.4031 14.8736 23.3035 15.7595C25.1706 16.6298 26.9795 18.2173 28.776 20.4218C29.1249 20.8499 29.0607 21.4798 28.6326 21.8287C28.2044 22.1776 27.5745 22.1134 27.2256 21.6853C25.5288 19.6031 23.9461 18.2656 22.4586 17.5722C21.0044 16.8944 19.6143 16.817 18.1997 17.3069C16.7488 17.8094 15.1982 18.9356 13.5274 20.8066Z" fill="#B9B9B9"/>
<path fill-rule="evenodd" clip-rule="evenodd" d="M2.19093 4.8549C3.37869 3.66714 4.9896 3 6.66927 3H16.3759C16.9282 3 17.3759 3.44772 17.3759 4C17.3759 4.55228 16.9282 5 16.3759 5H6.66927C5.51995 5 4.41777 5.45649 3.60514 6.26912L3.60513 6.26912C2.79249 7.08176 2.33594 8.18403 2.33594 9.33333V22.6667C2.33594 23.816 2.79245 24.918 3.60516 25.7308C4.41786 26.5434 5.52006 27 6.66927 27H22.6693C23.8186 27 24.9207 26.5434 25.7334 25.7308C26.5461 24.918 27.0026 23.816 27.0026 22.6667V16C27.0026 15.4477 27.4503 15 28.0026 15C28.5549 15 29.0026 15.4477 29.0026 16V22.6667C29.0026 24.3464 28.3354 25.9572 27.1476 27.145C25.9599 28.3326 24.3491 29 22.6693 29H6.66927C4.98952 29 3.37864 28.3326 2.19095 27.145L2.1909 27.1449C1.00321 25.9572 0.335938 24.3464 0.335938 22.6667V9.33333C0.335938 7.65365 1.00317 6.04265 2.19092 4.85491" fill="#B9B9B9"/>
<path fill-rule="evenodd" clip-rule="evenodd" d="M25 0.106598C25.5523 0.106598 26 0.554313 26 1.1066V11.7733C26 12.3256 25.5523 12.7733 25 12.7733C24.4477 12.7733 24 12.3256 24 11.7733V1.1066C24 0.554313 24.4477 0.106598 25 0.106598Z" fill="#B9B9B9"/>
<path fill-rule="evenodd" clip-rule="evenodd" d="M25.001 0.106598C25.2663 0.106598 25.5206 0.211955 25.7081 0.399491L29.9748 4.66616C30.3653 5.05669 30.3653 5.68985 29.9748 6.08038C29.5843 6.4709 28.9511 6.4709 28.5606 6.08038L25.001 2.52081L21.4415 6.08038C21.051 6.4709 20.4178 6.4709 20.0273 6.08038C19.6367 5.68985 19.6367 5.05669 20.0273 4.66616L24.2939 0.399492C24.4815 0.211955 24.7358 0.106598 25.001 0.106598Z" fill="#B9B9B9"/>
</svg>
