<svg width="66" height="32" viewBox="0 0 66 32" fill="none" xmlns="http://www.w3.org/2000/svg">
<path d="M18.7302 9.76942C19.8905 8.02559 28.7352 -4.81775 49.5336 5.45C49.5832 5.47423 49.6256 5.40708 49.5791 5.37731C46.2652 3.23785 28.7476 -7.63771 16.027 9.45859C15.9044 9.62369 16.0273 9.86322 16.2326 9.86322L18.3782 9.95702C18.5205 9.95702 18.651 9.88849 18.7302 9.76942Z" fill="#EF782D"/>
<path d="M35.2938 22.7228C35.4527 23.4878 35.1171 24.3016 34.4068 24.7139C33.5213 25.2276 32.3893 24.9227 31.8782 24.0331C31.3671 23.1432 31.6705 22.0058 32.5556 21.4918C33.0192 21.2229 33.5503 21.1783 34.0245 21.3245L49.1133 6.63909C49.1291 6.62352 49.1532 6.64636 49.1384 6.66332L35.2938 22.7228Z" fill="#EF782D"/>
<path fill-rule="evenodd" clip-rule="evenodd" d="M33.9604 20.5927L35.8125 11.8024H33.4591L32.6897 15.5629C32.4081 15.1889 32.041 14.921 31.5884 14.7593C31.1358 14.5975 30.6933 14.5166 30.2608 14.5166C29.5367 14.5166 28.893 14.6834 28.3298 15.017C27.7666 15.3405 27.2889 15.8055 26.8966 16.412C26.6251 16.7962 26.3938 17.2511 26.2027 17.7767C26.0116 18.3024 25.916 18.9039 25.916 19.5812C25.9362 20.1068 26.0166 20.5718 26.1574 20.9762C26.2982 21.3805 26.5044 21.7293 26.7759 22.0224C27.0576 22.3156 27.3794 22.5329 27.7415 22.6745C28.1035 22.8261 28.5159 22.9019 28.9785 22.9019C29.3305 22.9019 29.7479 22.8311 30.2307 22.6896C30.5875 22.5945 30.9207 22.433 31.2301 22.2053C31.5827 21.3006 32.4589 20.6599 33.4841 20.6599C33.6123 20.6599 33.7382 20.6699 33.8611 20.6893L33.9604 20.5927ZM32.2522 17.898C32.2522 18.1811 32.222 18.4844 32.1617 18.8078C31.8398 20.3949 31.0805 21.2036 29.8837 21.234C29.421 21.234 29.0539 21.0773 28.7824 20.7639C28.5108 20.4505 28.3751 20.026 28.3751 19.4902C28.3751 18.7017 28.5762 17.9789 28.9785 17.3218C29.421 16.5738 30.0044 16.1998 30.7285 16.1998C31.2314 16.1897 31.6135 16.3362 31.875 16.6395C32.1466 16.9428 32.2723 17.3623 32.2522 17.898Z" fill="#EF782D"/>
<path d="M0 13.895H3.22841L1.403 22.6138H3.93746L5.77796 13.895H9.02146L9.48912 11.8024H0.452581L0 13.895Z" fill="#EF782D"/>
<path fill-rule="evenodd" clip-rule="evenodd" d="M6.24797 17.3218H8.67682C8.87797 16.4828 9.44118 16.0633 10.3665 16.0633C11.0604 16.0633 11.4175 16.3059 11.4376 16.7911C11.4376 17.0944 11.3772 17.332 11.2565 17.5038C11.1761 17.6453 11.0252 17.7565 10.804 17.8374C10.5928 17.9082 10.3262 17.9587 10.0044 17.989C9.68256 18.0194 9.45124 18.0396 9.31044 18.0497C7.94264 18.2013 6.96707 18.4844 6.38374 18.8988C5.65961 19.3638 5.29755 20.0462 5.29755 20.9459C5.34784 22.2196 6.17757 22.8564 7.78675 22.8564C8.4103 22.8362 8.9886 22.7149 9.52164 22.4925C9.95411 22.2802 10.2609 22.073 10.4419 21.8708H10.5022L10.5626 22.6138H12.9914L13.0065 22.5532C12.7551 22.4217 12.6696 22.1892 12.75 21.8556C12.75 21.5221 12.7953 21.239 12.8858 21.0065L13.6703 17.4128C13.7608 16.9478 13.796 16.5687 13.7759 16.2756C13.7558 15.9723 13.62 15.6792 13.3686 15.3961C12.8557 14.8502 11.9555 14.5773 10.6682 14.5773C9.45124 14.547 8.46059 14.7694 7.69623 15.2445C7.25371 15.5376 6.91678 15.8813 6.68547 16.2756C6.45415 16.6698 6.30831 17.0186 6.24797 17.3218ZM9.6725 19.2627C10.3262 19.1515 10.7838 19.0201 11.0453 18.8685L10.9548 19.3537C10.8341 19.8996 10.6229 20.3494 10.3212 20.7032C9.84851 21.1581 9.34564 21.4058 8.8126 21.4462C8.15887 21.4462 7.81692 21.1784 7.78675 20.6426C7.78675 20.1978 7.99795 19.8541 8.42036 19.6115C8.59134 19.5104 9.00872 19.3942 9.6725 19.2627Z" fill="#EF782D"/>
<path d="M18.2804 11.8024H15.942L13.649 22.6138H15.9873L18.2804 11.8024Z" fill="#EF782D"/>
<path fill-rule="evenodd" clip-rule="evenodd" d="M18.153 17.3218H20.5818C20.783 16.4828 21.3462 16.0633 22.2715 16.0633C22.9654 16.0633 23.3225 16.3059 23.3426 16.7911C23.3426 17.0944 23.2822 17.332 23.1615 17.5038C23.0811 17.6453 22.9302 17.7565 22.709 17.8374C22.4978 17.9082 22.2312 17.9587 21.9094 17.989C21.5876 18.0194 21.3562 18.0396 21.2154 18.0497C19.8476 18.2013 18.8721 18.4844 18.2887 18.8988C17.5646 19.3638 17.2026 20.0462 17.2026 20.9459C17.2528 22.2196 18.0826 22.8564 19.6918 22.8564C20.3153 22.8362 20.8936 22.7149 21.4266 22.4925C21.8591 22.2802 22.1659 22.073 22.3469 21.8708H22.4072L22.4676 22.6138H24.8964L24.9115 22.5532C24.6601 22.4217 24.5746 22.1892 24.6551 21.8556C24.6551 21.5221 24.7003 21.239 24.7908 21.0065L25.5753 17.4128C25.6658 16.9478 25.701 16.5687 25.6809 16.2756C25.6608 15.9723 25.525 15.6792 25.2736 15.3961C24.7607 14.8502 23.8605 14.5773 22.5732 14.5773C21.3563 14.547 20.3656 14.7694 19.6012 15.2445C19.1587 15.5376 18.8218 15.8813 18.5905 16.2756C18.3591 16.6698 18.2133 17.0186 18.153 17.3218ZM21.5775 19.2627C22.2312 19.1515 22.6888 19.0201 22.9503 18.8685L22.8598 19.3537C22.7391 19.8996 22.5279 20.3494 22.2262 20.7032C21.7535 21.1581 21.2506 21.4058 20.7176 21.4462C20.0639 21.4462 19.7219 21.1784 19.6918 20.6426C19.6918 20.1978 19.903 19.8541 20.3254 19.6115C20.4963 19.5104 20.9137 19.3942 21.5775 19.2627Z" fill="#EF782D"/>
<path fill-rule="evenodd" clip-rule="evenodd" d="M34.4217 25.3352L33.0781 31.7117H35.5975L36.4574 27.7238H38.4488C39.4243 27.7238 39.9222 28.0523 39.9423 28.7094C39.9423 28.9823 39.887 29.3058 39.7763 29.6799C39.6657 30.2156 39.6054 30.6149 39.5953 30.8777C39.5852 31.1406 39.6355 31.4186 39.7462 31.7117H42.3259C42.2152 31.4186 42.165 31.1507 42.175 30.9081C42.1851 30.6655 42.2454 30.2257 42.356 29.5889C42.5069 28.9925 42.5622 28.5477 42.522 28.2545C42.522 27.5469 42.1599 27.0667 41.4358 26.814L41.4509 26.7988C41.994 26.6371 42.4667 26.3642 42.869 25.98C43.5328 25.4038 43.8646 24.6153 43.8646 23.6146C43.9049 22.6138 43.5177 21.8506 42.703 21.3249C42.2102 21.0419 41.5012 20.9003 40.5759 20.9003H37.6037L35.8948 22.8793C35.9009 22.9494 35.904 23.0204 35.904 23.0922C35.904 24.1013 35.2925 24.967 34.4217 25.3352ZM36.8949 25.7526L37.4832 22.9929H39.5953C40.6815 22.9929 41.2145 23.4073 41.1944 24.2363C41.1542 24.6406 40.9882 24.9944 40.6966 25.2977C40.4049 25.6009 39.9121 25.7526 39.2181 25.7526H36.8949Z" fill="#EF782D"/>
<path fill-rule="evenodd" clip-rule="evenodd" d="M44.8842 30.62C45.5581 31.55 46.8253 32.0099 48.6859 31.9998C49.3195 31.9998 49.8978 31.9392 50.4208 31.8179C50.9539 31.6966 51.4567 31.4994 51.9294 31.2265C52.4122 30.9435 52.8597 30.5644 53.2721 30.0893C53.9057 29.3412 54.3683 28.5274 54.66 27.648C54.9617 26.7685 55.0975 25.9042 55.0673 25.0551C55.0673 24.398 54.9718 23.7965 54.7807 23.2506C54.5896 22.7048 54.303 22.2347 53.9208 21.8405C53.5386 21.4462 53.0508 21.143 52.4574 20.9307C51.8641 20.7184 51.1751 20.6122 50.3907 20.6122C48.4395 20.6122 46.8806 21.2592 45.714 22.5531C45.1206 23.2405 44.658 24.0341 44.3261 24.9338C44.0042 25.8233 43.8433 26.6978 43.8433 27.557C43.8634 28.6589 44.2104 29.6799 44.8842 30.62ZM51.5975 28.2848C50.9941 29.3665 50.0889 29.9073 48.8821 29.9073C48.349 29.9376 47.826 29.7809 47.3131 29.4372C46.8102 29.0935 46.5739 28.3455 46.6041 27.1931C46.6644 26.1215 46.9259 25.1713 47.3885 24.3424C47.992 23.2506 48.8921 22.7048 50.0889 22.7048C51.6277 22.7048 52.387 23.6095 52.3669 25.419C52.3066 26.5411 52.0501 27.4963 51.5975 28.2848Z" fill="#EF782D"/>
<path fill-rule="evenodd" clip-rule="evenodd" d="M61.6552 20.9003H57.1445L54.8062 31.7117H59.4527C60.388 31.7117 61.1674 31.6359 61.791 31.4843C62.4145 31.3326 63.0381 31.0041 63.6617 30.4987C64.5266 29.8012 65.13 28.9722 65.472 28.0119C65.824 27.0415 66 26.1418 66 25.3128C66 24.5041 65.8692 23.7662 65.6078 23.099C65.3463 22.4217 64.9339 21.9062 64.3707 21.5524C63.727 21.1177 62.8219 20.9003 61.6552 20.9003ZM57.8234 29.6495L59.2264 22.9929H61.0065C62.4749 22.9929 63.2242 23.7157 63.2543 25.1612C63.2845 25.7576 63.189 26.3894 62.9677 27.0566C62.7565 27.7137 62.4397 28.2545 62.0173 28.6791C61.3837 29.326 60.5187 29.6495 59.4225 29.6495H57.8234Z" fill="#EF782D"/>
</svg>
