<svg width="24" height="24" viewBox="0 0 24 24" fill="none" xmlns="http://www.w3.org/2000/svg">
<mask id="mask0_701_501" style="mask-type:alpha" maskUnits="userSpaceOnUse" x="0" y="0" width="24" height="24">
<rect width="24" height="24" fill="#D9D9D9"/>
</mask>
<g mask="url(#mask0_701_501)">
<path d="M12 15.5556C13.08 15.5556 13.9981 15.1774 14.7544 14.4211C15.5107 13.6648 15.8889 12.7467 15.8889 11.6667C15.8889 10.5867 15.5107 9.66852 14.7544 8.91222C13.9981 8.15593 13.08 7.77778 12 7.77778C10.92 7.77778 10.0019 8.15593 9.24556 8.91222C8.48926 9.66852 8.11111 10.5867 8.11111 11.6667C8.11111 12.7467 8.48926 13.6648 9.24556 14.4211C10.0019 15.1774 10.92 15.5556 12 15.5556ZM12 13.8889C11.383 13.8889 10.8581 13.673 10.4256 13.2411C9.9937 12.8085 9.77778 12.2837 9.77778 11.6667C9.77778 11.0496 9.9937 10.5248 10.4256 10.0922C10.8581 9.66037 11.383 9.44444 12 9.44444C12.617 9.44444 13.1419 9.66037 13.5744 10.0922C14.0063 10.5248 14.2222 11.0496 14.2222 11.6667C14.2222 12.2837 14.0063 12.8085 13.5744 13.2411C13.1419 13.673 12.617 13.8889 12 13.8889ZM12 18.3333C9.79333 18.3333 7.78704 17.7278 5.98111 16.5167C4.17593 15.3048 2.84889 13.6881 2 11.6667C2.84889 9.64519 4.17593 8.02852 5.98111 6.81667C7.78704 5.60556 9.79333 5 12 5C14.2067 5 16.213 5.60556 18.0189 6.81667C19.8241 8.02852 21.1511 9.64519 22 11.6667C21.1511 13.6881 19.8241 15.3048 18.0189 16.5167C16.213 17.7278 14.2067 18.3333 12 18.3333ZM12 16.6667C13.7281 16.6667 15.3252 16.2193 16.7911 15.3244C18.2578 14.4289 19.3844 13.2096 20.1711 11.6667C19.3844 10.1237 18.2578 8.90444 16.7911 8.00889C15.3252 7.11407 13.7281 6.66667 12 6.66667C10.2719 6.66667 8.67481 7.11407 7.20889 8.00889C5.74222 8.90444 4.61556 10.1237 3.82889 11.6667C4.61556 13.2096 5.74222 14.4289 7.20889 15.3244C8.67481 16.2193 10.2719 16.6667 12 16.6667Z" fill="#B9B9B9"/>
</g>
</svg>
